%TF.GenerationSoftware,KiCad,Pcbnew,9.0.7*%
%TF.CreationDate,2026-03-01T17:50:22+05:30*%
%TF.ProjectId,HID,4849442e-6b69-4636-9164-5f7063625858,rev?*%
%TF.SameCoordinates,Original*%
%TF.FileFunction,Soldermask,Top*%
%TF.FilePolarity,Negative*%
%FSLAX46Y46*%
G04 Gerber Fmt 4.6, Leading zero omitted, Abs format (unit mm)*
G04 Created by KiCad (PCBNEW 9.0.7) date 2026-03-01 17:50:22*
%MOMM*%
%LPD*%
G01*
G04 APERTURE LIST*
G04 Aperture macros list*
%AMRoundRect*
0 Rectangle with rounded corners*
0 $1 Rounding radius*
0 $2 $3 $4 $5 $6 $7 $8 $9 X,Y pos of 4 corners*
0 Add a 4 corners polygon primitive as box body*
4,1,4,$2,$3,$4,$5,$6,$7,$8,$9,$2,$3,0*
0 Add four circle primitives for the rounded corners*
1,1,$1+$1,$2,$3*
1,1,$1+$1,$4,$5*
1,1,$1+$1,$6,$7*
1,1,$1+$1,$8,$9*
0 Add four rect primitives between the rounded corners*
20,1,$1+$1,$2,$3,$4,$5,0*
20,1,$1+$1,$4,$5,$6,$7,0*
20,1,$1+$1,$6,$7,$8,$9,0*
20,1,$1+$1,$8,$9,$2,$3,0*%
G04 Aperture macros list end*
%ADD10C,0.650000*%
%ADD11RoundRect,0.150000X0.150000X0.425000X-0.150000X0.425000X-0.150000X-0.425000X0.150000X-0.425000X0*%
%ADD12RoundRect,0.075000X0.075000X0.500000X-0.075000X0.500000X-0.075000X-0.500000X0.075000X-0.500000X0*%
%ADD13RoundRect,0.250000X0.840000X0.750000X-0.840000X0.750000X-0.840000X-0.750000X0.840000X-0.750000X0*%
%ADD14RoundRect,0.250000X-0.350000X-0.450000X0.350000X-0.450000X0.350000X0.450000X-0.350000X0.450000X0*%
%ADD15RoundRect,0.250000X-0.475000X0.337500X-0.475000X-0.337500X0.475000X-0.337500X0.475000X0.337500X0*%
%ADD16RoundRect,0.250000X0.350000X0.450000X-0.350000X0.450000X-0.350000X-0.450000X0.350000X-0.450000X0*%
%ADD17RoundRect,0.250000X-0.337500X-0.475000X0.337500X-0.475000X0.337500X0.475000X-0.337500X0.475000X0*%
%ADD18RoundRect,0.250000X0.337500X0.475000X-0.337500X0.475000X-0.337500X-0.475000X0.337500X-0.475000X0*%
%ADD19RoundRect,0.162500X0.162500X-0.650000X0.162500X0.650000X-0.162500X0.650000X-0.162500X-0.650000X0*%
%ADD20R,3.200000X3.200000*%
%ADD21RoundRect,0.050000X-0.050000X-0.387500X0.050000X-0.387500X0.050000X0.387500X-0.050000X0.387500X0*%
%ADD22RoundRect,0.050000X-0.387500X-0.050000X0.387500X-0.050000X0.387500X0.050000X-0.387500X0.050000X0*%
%ADD23C,1.000000*%
%ADD24R,1.000000X1.000000*%
%ADD25RoundRect,0.200000X0.250000X-0.200000X0.250000X0.200000X-0.250000X0.200000X-0.250000X-0.200000X0*%
%ADD26RoundRect,0.250000X0.475000X-0.337500X0.475000X0.337500X-0.475000X0.337500X-0.475000X-0.337500X0*%
%ADD27RoundRect,0.150000X0.512500X0.150000X-0.512500X0.150000X-0.512500X-0.150000X0.512500X-0.150000X0*%
%ADD28RoundRect,0.150000X-0.512500X-0.150000X0.512500X-0.150000X0.512500X0.150000X-0.512500X0.150000X0*%
%ADD29RoundRect,0.250000X-0.450000X0.350000X-0.450000X-0.350000X0.450000X-0.350000X0.450000X0.350000X0*%
G04 APERTURE END LIST*
D10*
%TO.C,J1*%
X139600000Y-63731250D03*
X133820000Y-63731250D03*
D11*
X139910000Y-64806250D03*
X139110000Y-64806250D03*
D12*
X137960000Y-64806250D03*
X136960000Y-64806250D03*
X136460000Y-64806250D03*
X135460000Y-64806250D03*
D11*
X134310000Y-64806250D03*
X133510000Y-64806250D03*
X133510000Y-64806250D03*
X134310000Y-64806250D03*
D12*
X134960000Y-64806250D03*
X135960000Y-64806250D03*
X137460000Y-64806250D03*
X138460000Y-64806250D03*
D11*
X139110000Y-64806250D03*
X139910000Y-64806250D03*
D13*
X141820000Y-64231250D03*
X141820000Y-60301250D03*
X131600000Y-64231250D03*
X131600000Y-60301250D03*
%TD*%
D14*
%TO.C,R3*%
X142462500Y-70131250D03*
X140462500Y-70131250D03*
%TD*%
D15*
%TO.C,C2*%
X133000000Y-94425000D03*
X133000000Y-96500000D03*
%TD*%
D16*
%TO.C,R1*%
X140000000Y-92000000D03*
X138000000Y-92000000D03*
%TD*%
D17*
%TO.C,C3*%
X125200000Y-84131250D03*
X127275000Y-84131250D03*
%TD*%
D18*
%TO.C,C4*%
X136700000Y-82631250D03*
X138775000Y-82631250D03*
%TD*%
D19*
%TO.C,U2*%
X123095000Y-77318750D03*
X124365000Y-77318750D03*
X125635000Y-77318750D03*
X126905000Y-77318750D03*
X126905000Y-70143750D03*
X125635000Y-70143750D03*
X124365000Y-70143750D03*
X123095000Y-70143750D03*
%TD*%
D20*
%TO.C,U1*%
X132800000Y-87531250D03*
D21*
X130200000Y-84093750D03*
X130600000Y-84093750D03*
X131000000Y-84093750D03*
X131400000Y-84093750D03*
X131800000Y-84093750D03*
X132200000Y-84093750D03*
X132600000Y-84093750D03*
X133000000Y-84093750D03*
X133400000Y-84093750D03*
X133800000Y-84093750D03*
X134200000Y-84093750D03*
X134600000Y-84093750D03*
X135000000Y-84093750D03*
X135400000Y-84093750D03*
D22*
X136237500Y-84931250D03*
X136237500Y-85331250D03*
X136237500Y-85731250D03*
X136237500Y-86131250D03*
X136237500Y-86531250D03*
X136237500Y-86931250D03*
X136237500Y-87331250D03*
X136237500Y-87731250D03*
X136237500Y-88131250D03*
X136237500Y-88531250D03*
X136237500Y-88931250D03*
X136237500Y-89331250D03*
X136237500Y-89731250D03*
X136237500Y-90131250D03*
D21*
X135400000Y-90968750D03*
X135000000Y-90968750D03*
X134600000Y-90968750D03*
X134200000Y-90968750D03*
X133800000Y-90968750D03*
X133400000Y-90968750D03*
X133000000Y-90968750D03*
X132600000Y-90968750D03*
X132200000Y-90968750D03*
X131800000Y-90968750D03*
X131400000Y-90968750D03*
X131000000Y-90968750D03*
X130600000Y-90968750D03*
X130200000Y-90968750D03*
D22*
X129362500Y-90131250D03*
X129362500Y-89731250D03*
X129362500Y-89331250D03*
X129362500Y-88931250D03*
X129362500Y-88531250D03*
X129362500Y-88131250D03*
X129362500Y-87731250D03*
X129362500Y-87331250D03*
X129362500Y-86931250D03*
X129362500Y-86531250D03*
X129362500Y-86131250D03*
X129362500Y-85731250D03*
X129362500Y-85331250D03*
X129362500Y-84931250D03*
%TD*%
D15*
%TO.C,C6*%
X132000000Y-80268750D03*
X132000000Y-78193750D03*
%TD*%
%TO.C,C5*%
X136237500Y-78593750D03*
X136237500Y-80668750D03*
%TD*%
D23*
%TO.C,J2*%
X137500000Y-98540000D03*
X137500000Y-97270000D03*
X137500000Y-96000000D03*
D24*
X137500000Y-94730000D03*
%TD*%
D25*
%TO.C,Y1*%
X128650000Y-94000000D03*
X130500000Y-94000000D03*
X130500000Y-95450000D03*
X128650000Y-95450000D03*
%TD*%
D14*
%TO.C,R5*%
X141600000Y-67231250D03*
X139600000Y-67231250D03*
%TD*%
D26*
%TO.C,C1*%
X118100000Y-61231250D03*
X118100000Y-63306250D03*
%TD*%
D18*
%TO.C,C7*%
X126664564Y-59891250D03*
X128739564Y-59891250D03*
%TD*%
D17*
%TO.C,C8*%
X122600000Y-59731250D03*
X120525000Y-59731250D03*
%TD*%
D14*
%TO.C,R2*%
X142462500Y-72631250D03*
X140462500Y-72631250D03*
%TD*%
D16*
%TO.C,R6*%
X126432064Y-62231250D03*
X128432064Y-62231250D03*
%TD*%
D27*
%TO.C,U3*%
X120325000Y-63631250D03*
X120325000Y-61731250D03*
X122600000Y-61731250D03*
X122600000Y-62681250D03*
X122600000Y-63631250D03*
%TD*%
D28*
%TO.C,U4*%
X134825000Y-70281250D03*
X134825000Y-71231250D03*
X134825000Y-72181250D03*
X137100000Y-72181250D03*
X137100000Y-71231250D03*
X137100000Y-70281250D03*
%TD*%
D29*
%TO.C,R4*%
X132100000Y-69731250D03*
X132100000Y-67731250D03*
%TD*%
M02*
