%TF.GenerationSoftware,KiCad,Pcbnew,9.0.7*%
%TF.CreationDate,2026-03-01T17:50:22+05:30*%
%TF.ProjectId,HID,4849442e-6b69-4636-9164-5f7063625858,rev?*%
%TF.SameCoordinates,Original*%
%TF.FileFunction,Copper,L1,Top*%
%TF.FilePolarity,Positive*%
%FSLAX46Y46*%
G04 Gerber Fmt 4.6, Leading zero omitted, Abs format (unit mm)*
G04 Created by KiCad (PCBNEW 9.0.7) date 2026-03-01 17:50:22*
%MOMM*%
%LPD*%
G01*
G04 APERTURE LIST*
G04 Aperture macros list*
%AMRoundRect*
0 Rectangle with rounded corners*
0 $1 Rounding radius*
0 $2 $3 $4 $5 $6 $7 $8 $9 X,Y pos of 4 corners*
0 Add a 4 corners polygon primitive as box body*
4,1,4,$2,$3,$4,$5,$6,$7,$8,$9,$2,$3,0*
0 Add four circle primitives for the rounded corners*
1,1,$1+$1,$2,$3*
1,1,$1+$1,$4,$5*
1,1,$1+$1,$6,$7*
1,1,$1+$1,$8,$9*
0 Add four rect primitives between the rounded corners*
20,1,$1+$1,$2,$3,$4,$5,0*
20,1,$1+$1,$4,$5,$6,$7,0*
20,1,$1+$1,$6,$7,$8,$9,0*
20,1,$1+$1,$8,$9,$2,$3,0*%
G04 Aperture macros list end*
%TA.AperFunction,SMDPad,CuDef*%
%ADD10RoundRect,0.150000X0.150000X0.425000X-0.150000X0.425000X-0.150000X-0.425000X0.150000X-0.425000X0*%
%TD*%
%TA.AperFunction,SMDPad,CuDef*%
%ADD11RoundRect,0.075000X0.075000X0.500000X-0.075000X0.500000X-0.075000X-0.500000X0.075000X-0.500000X0*%
%TD*%
%TA.AperFunction,SMDPad,CuDef*%
%ADD12RoundRect,0.250000X0.840000X0.750000X-0.840000X0.750000X-0.840000X-0.750000X0.840000X-0.750000X0*%
%TD*%
%TA.AperFunction,SMDPad,CuDef*%
%ADD13RoundRect,0.250000X-0.350000X-0.450000X0.350000X-0.450000X0.350000X0.450000X-0.350000X0.450000X0*%
%TD*%
%TA.AperFunction,SMDPad,CuDef*%
%ADD14RoundRect,0.250000X-0.475000X0.337500X-0.475000X-0.337500X0.475000X-0.337500X0.475000X0.337500X0*%
%TD*%
%TA.AperFunction,SMDPad,CuDef*%
%ADD15RoundRect,0.250000X0.350000X0.450000X-0.350000X0.450000X-0.350000X-0.450000X0.350000X-0.450000X0*%
%TD*%
%TA.AperFunction,SMDPad,CuDef*%
%ADD16RoundRect,0.250000X-0.337500X-0.475000X0.337500X-0.475000X0.337500X0.475000X-0.337500X0.475000X0*%
%TD*%
%TA.AperFunction,SMDPad,CuDef*%
%ADD17RoundRect,0.250000X0.337500X0.475000X-0.337500X0.475000X-0.337500X-0.475000X0.337500X-0.475000X0*%
%TD*%
%TA.AperFunction,SMDPad,CuDef*%
%ADD18RoundRect,0.162500X0.162500X-0.650000X0.162500X0.650000X-0.162500X0.650000X-0.162500X-0.650000X0*%
%TD*%
%TA.AperFunction,HeatsinkPad*%
%ADD19R,3.200000X3.200000*%
%TD*%
%TA.AperFunction,SMDPad,CuDef*%
%ADD20RoundRect,0.050000X-0.050000X-0.387500X0.050000X-0.387500X0.050000X0.387500X-0.050000X0.387500X0*%
%TD*%
%TA.AperFunction,SMDPad,CuDef*%
%ADD21RoundRect,0.050000X-0.387500X-0.050000X0.387500X-0.050000X0.387500X0.050000X-0.387500X0.050000X0*%
%TD*%
%TA.AperFunction,ComponentPad*%
%ADD22C,1.000000*%
%TD*%
%TA.AperFunction,ComponentPad*%
%ADD23R,1.000000X1.000000*%
%TD*%
%TA.AperFunction,SMDPad,CuDef*%
%ADD24RoundRect,0.200000X0.250000X-0.200000X0.250000X0.200000X-0.250000X0.200000X-0.250000X-0.200000X0*%
%TD*%
%TA.AperFunction,SMDPad,CuDef*%
%ADD25RoundRect,0.250000X0.475000X-0.337500X0.475000X0.337500X-0.475000X0.337500X-0.475000X-0.337500X0*%
%TD*%
%TA.AperFunction,SMDPad,CuDef*%
%ADD26RoundRect,0.150000X0.512500X0.150000X-0.512500X0.150000X-0.512500X-0.150000X0.512500X-0.150000X0*%
%TD*%
%TA.AperFunction,SMDPad,CuDef*%
%ADD27RoundRect,0.150000X-0.512500X-0.150000X0.512500X-0.150000X0.512500X0.150000X-0.512500X0.150000X0*%
%TD*%
%TA.AperFunction,SMDPad,CuDef*%
%ADD28RoundRect,0.250000X-0.450000X0.350000X-0.450000X-0.350000X0.450000X-0.350000X0.450000X0.350000X0*%
%TD*%
%TA.AperFunction,ViaPad*%
%ADD29C,0.600000*%
%TD*%
%TA.AperFunction,Conductor*%
%ADD30C,0.200000*%
%TD*%
G04 APERTURE END LIST*
D10*
%TO.P,J1,A1,GND*%
%TO.N,GND*%
X139910000Y-64806250D03*
%TO.P,J1,A4,VBUS*%
%TO.N,Net-(U3-EN)*%
X139110000Y-64806250D03*
D11*
%TO.P,J1,A5,CC1*%
%TO.N,Net-(J1-CC1)*%
X137960000Y-64806250D03*
%TO.P,J1,A6,D+*%
%TO.N,Net-(J1-D+-PadA6)*%
X136960000Y-64806250D03*
%TO.P,J1,A7,D-*%
%TO.N,Net-(J1-D--PadA7)*%
X136460000Y-64806250D03*
%TO.P,J1,A8,SBU1*%
%TO.N,unconnected-(J1-SBU1-PadA8)*%
X135460000Y-64806250D03*
D10*
%TO.P,J1,A9,VBUS*%
%TO.N,Net-(U3-EN)*%
X134310000Y-64806250D03*
%TO.P,J1,A12,GND*%
%TO.N,GND*%
X133510000Y-64806250D03*
%TO.P,J1,B1,GND*%
X133510000Y-64806250D03*
%TO.P,J1,B4,VBUS*%
%TO.N,Net-(U3-EN)*%
X134310000Y-64806250D03*
D11*
%TO.P,J1,B5,CC2*%
%TO.N,Net-(J1-CC2)*%
X134960000Y-64806250D03*
%TO.P,J1,B6,D+*%
%TO.N,Net-(J1-D+-PadA6)*%
X135960000Y-64806250D03*
%TO.P,J1,B7,D-*%
%TO.N,Net-(J1-D--PadA7)*%
X137460000Y-64806250D03*
%TO.P,J1,B8,SBU2*%
%TO.N,unconnected-(J1-SBU2-PadB8)*%
X138460000Y-64806250D03*
D10*
%TO.P,J1,B9,VBUS*%
%TO.N,Net-(U3-EN)*%
X139110000Y-64806250D03*
%TO.P,J1,B12,GND*%
%TO.N,GND*%
X139910000Y-64806250D03*
D12*
%TO.P,J1,S1,SHIELD*%
%TO.N,Net-(J1-SHIELD)*%
X141820000Y-64231250D03*
X141820000Y-60301250D03*
X131600000Y-64231250D03*
X131600000Y-60301250D03*
%TD*%
D13*
%TO.P,R3,2*%
%TO.N,Net-(U1-USB_DM)*%
X142462500Y-70131250D03*
%TO.P,R3,1*%
%TO.N,Net-(R3-Pad1)*%
X140462500Y-70131250D03*
%TD*%
D14*
%TO.P,C2,1*%
%TO.N,Net-(U1-VREG_VOUT)*%
X133000000Y-94425000D03*
%TO.P,C2,2*%
%TO.N,GND*%
X133000000Y-96500000D03*
%TD*%
D15*
%TO.P,R1,1*%
%TO.N,+3.3V*%
X140000000Y-92000000D03*
%TO.P,R1,2*%
%TO.N,Net-(U1-RUN)*%
X138000000Y-92000000D03*
%TD*%
D16*
%TO.P,C3,1*%
%TO.N,GND*%
X125200000Y-84131250D03*
%TO.P,C3,2*%
%TO.N,+3.3V*%
X127275000Y-84131250D03*
%TD*%
D17*
%TO.P,C4,2*%
%TO.N,+3.3V*%
X136700000Y-82631250D03*
%TO.P,C4,1*%
%TO.N,GND*%
X138775000Y-82631250D03*
%TD*%
D18*
%TO.P,U2,1,~{CS}*%
%TO.N,Net-(U1-~{QSPI_SS})*%
X123095000Y-77318750D03*
%TO.P,U2,2,DO/IO_{1}*%
%TO.N,Net-(U1-QSPI_SD1)*%
X124365000Y-77318750D03*
%TO.P,U2,3,~{WP}/IO_{2}*%
%TO.N,Net-(U1-QSPI_SD2)*%
X125635000Y-77318750D03*
%TO.P,U2,4,GND*%
%TO.N,GND*%
X126905000Y-77318750D03*
%TO.P,U2,5,DI/IO_{0}*%
%TO.N,Net-(U1-QSPI_SD0)*%
X126905000Y-70143750D03*
%TO.P,U2,6,CLK*%
%TO.N,Net-(U1-QSPI_SCLK)*%
X125635000Y-70143750D03*
%TO.P,U2,7,~{HOLD}/~{RESET}/IO_{3}*%
%TO.N,Net-(U1-QSPI_SD3)*%
X124365000Y-70143750D03*
%TO.P,U2,8,VCC*%
%TO.N,+3.3V*%
X123095000Y-70143750D03*
%TD*%
D19*
%TO.P,U1,57,GND*%
%TO.N,GND*%
X132800000Y-87531250D03*
D20*
%TO.P,U1,56,~{QSPI_SS}*%
%TO.N,Net-(U1-~{QSPI_SS})*%
X130200000Y-84093750D03*
%TO.P,U1,55,QSPI_SD1*%
%TO.N,Net-(U1-QSPI_SD1)*%
X130600000Y-84093750D03*
%TO.P,U1,54,QSPI_SD2*%
%TO.N,Net-(U1-QSPI_SD2)*%
X131000000Y-84093750D03*
%TO.P,U1,53,QSPI_SD0*%
%TO.N,Net-(U1-QSPI_SD0)*%
X131400000Y-84093750D03*
%TO.P,U1,52,QSPI_SCLK*%
%TO.N,Net-(U1-QSPI_SCLK)*%
X131800000Y-84093750D03*
%TO.P,U1,51,QSPI_SD3*%
%TO.N,Net-(U1-QSPI_SD3)*%
X132200000Y-84093750D03*
%TO.P,U1,50,DVDD*%
%TO.N,Net-(U1-VREG_VOUT)*%
X132600000Y-84093750D03*
%TO.P,U1,49,IOVDD*%
%TO.N,+3.3V*%
X133000000Y-84093750D03*
%TO.P,U1,48,USB_VDD*%
X133400000Y-84093750D03*
%TO.P,U1,47,USB_DP*%
%TO.N,Net-(U1-USB_DP)*%
X133800000Y-84093750D03*
%TO.P,U1,46,USB_DM*%
%TO.N,Net-(U1-USB_DM)*%
X134200000Y-84093750D03*
%TO.P,U1,45,VREG_VOUT*%
%TO.N,Net-(U1-VREG_VOUT)*%
X134600000Y-84093750D03*
%TO.P,U1,44,VREG_VIN*%
%TO.N,+3.3V*%
X135000000Y-84093750D03*
%TO.P,U1,43,ADC_AVDD*%
X135400000Y-84093750D03*
D21*
%TO.P,U1,42,IOVDD*%
X136237500Y-84931250D03*
%TO.P,U1,41,GPIO29/ADC3*%
%TO.N,unconnected-(U1-GPIO29{slash}ADC3-Pad41)*%
X136237500Y-85331250D03*
%TO.P,U1,40,GPIO28/ADC2*%
%TO.N,unconnected-(U1-GPIO28{slash}ADC2-Pad40)*%
X136237500Y-85731250D03*
%TO.P,U1,39,GPIO27/ADC1*%
%TO.N,unconnected-(U1-GPIO27{slash}ADC1-Pad39)*%
X136237500Y-86131250D03*
%TO.P,U1,38,GPIO26/ADC0*%
%TO.N,unconnected-(U1-GPIO26{slash}ADC0-Pad38)*%
X136237500Y-86531250D03*
%TO.P,U1,37,GPIO25*%
%TO.N,unconnected-(U1-GPIO25-Pad37)*%
X136237500Y-86931250D03*
%TO.P,U1,36,GPIO24*%
%TO.N,unconnected-(U1-GPIO24-Pad36)*%
X136237500Y-87331250D03*
%TO.P,U1,35,GPIO23*%
%TO.N,unconnected-(U1-GPIO23-Pad35)*%
X136237500Y-87731250D03*
%TO.P,U1,34,GPIO22*%
%TO.N,unconnected-(U1-GPIO22-Pad34)*%
X136237500Y-88131250D03*
%TO.P,U1,33,IOVDD*%
%TO.N,+3.3V*%
X136237500Y-88531250D03*
%TO.P,U1,32,GPIO21*%
%TO.N,unconnected-(U1-GPIO21-Pad32)*%
X136237500Y-88931250D03*
%TO.P,U1,31,GPIO20*%
%TO.N,unconnected-(U1-GPIO20-Pad31)*%
X136237500Y-89331250D03*
%TO.P,U1,30,GPIO19*%
%TO.N,unconnected-(U1-GPIO19-Pad30)*%
X136237500Y-89731250D03*
%TO.P,U1,29,GPIO18*%
%TO.N,unconnected-(U1-GPIO18-Pad29)*%
X136237500Y-90131250D03*
D20*
%TO.P,U1,28,GPIO17*%
%TO.N,unconnected-(U1-GPIO17-Pad28)*%
X135400000Y-90968750D03*
%TO.P,U1,27,GPIO16*%
%TO.N,unconnected-(U1-GPIO16-Pad27)*%
X135000000Y-90968750D03*
%TO.P,U1,26,RUN*%
%TO.N,Net-(U1-RUN)*%
X134600000Y-90968750D03*
%TO.P,U1,25,SWDIO*%
%TO.N,Net-(J2-Pin_1)*%
X134200000Y-90968750D03*
%TO.P,U1,24,SWCLK*%
%TO.N,Net-(J2-Pin_2)*%
X133800000Y-90968750D03*
%TO.P,U1,23,DVDD*%
%TO.N,Net-(U1-VREG_VOUT)*%
X133400000Y-90968750D03*
%TO.P,U1,22,IOVDD*%
%TO.N,+3.3V*%
X133000000Y-90968750D03*
%TO.P,U1,21,XOUT*%
%TO.N,unconnected-(U1-XOUT-Pad21)*%
X132600000Y-90968750D03*
%TO.P,U1,20,XIN*%
%TO.N,Net-(U1-XIN)*%
X132200000Y-90968750D03*
%TO.P,U1,19,TESTEN*%
%TO.N,unconnected-(U1-TESTEN-Pad19)*%
X131800000Y-90968750D03*
%TO.P,U1,18,GPIO15*%
%TO.N,unconnected-(U1-GPIO15-Pad18)*%
X131400000Y-90968750D03*
%TO.P,U1,17,GPIO14*%
%TO.N,unconnected-(U1-GPIO14-Pad17)*%
X131000000Y-90968750D03*
%TO.P,U1,16,GPIO13*%
%TO.N,unconnected-(U1-GPIO13-Pad16)*%
X130600000Y-90968750D03*
%TO.P,U1,15,GPIO12*%
%TO.N,unconnected-(U1-GPIO12-Pad15)*%
X130200000Y-90968750D03*
D21*
%TO.P,U1,14,GPIO11*%
%TO.N,unconnected-(U1-GPIO11-Pad14)*%
X129362500Y-90131250D03*
%TO.P,U1,13,GPIO10*%
%TO.N,unconnected-(U1-GPIO10-Pad13)*%
X129362500Y-89731250D03*
%TO.P,U1,12,GPIO9*%
%TO.N,unconnected-(U1-GPIO9-Pad12)*%
X129362500Y-89331250D03*
%TO.P,U1,11,GPIO8*%
%TO.N,unconnected-(U1-GPIO8-Pad11)*%
X129362500Y-88931250D03*
%TO.P,U1,10,IOVDD*%
%TO.N,+3.3V*%
X129362500Y-88531250D03*
%TO.P,U1,9,GPIO7*%
%TO.N,unconnected-(U1-GPIO7-Pad9)*%
X129362500Y-88131250D03*
%TO.P,U1,8,GPIO6*%
%TO.N,unconnected-(U1-GPIO6-Pad8)*%
X129362500Y-87731250D03*
%TO.P,U1,7,GPIO5*%
%TO.N,unconnected-(U1-GPIO5-Pad7)*%
X129362500Y-87331250D03*
%TO.P,U1,6,GPIO4*%
%TO.N,unconnected-(U1-GPIO4-Pad6)*%
X129362500Y-86931250D03*
%TO.P,U1,5,GPIO3*%
%TO.N,unconnected-(U1-GPIO3-Pad5)*%
X129362500Y-86531250D03*
%TO.P,U1,4,GPIO2*%
%TO.N,unconnected-(U1-GPIO2-Pad4)*%
X129362500Y-86131250D03*
%TO.P,U1,3,GPIO1*%
%TO.N,unconnected-(U1-GPIO1-Pad3)*%
X129362500Y-85731250D03*
%TO.P,U1,2,GPIO0*%
%TO.N,unconnected-(U1-GPIO0-Pad2)*%
X129362500Y-85331250D03*
%TO.P,U1,1,IOVDD*%
%TO.N,+3.3V*%
X129362500Y-84931250D03*
%TD*%
D14*
%TO.P,C6,2*%
%TO.N,+3.3V*%
X132000000Y-80268750D03*
%TO.P,C6,1*%
%TO.N,GND*%
X132000000Y-78193750D03*
%TD*%
%TO.P,C5,1*%
%TO.N,GND*%
X136237500Y-78593750D03*
%TO.P,C5,2*%
%TO.N,+3.3V*%
X136237500Y-80668750D03*
%TD*%
D22*
%TO.P,J2,4,Pin_4*%
%TO.N,GND*%
X137500000Y-98540000D03*
%TO.P,J2,3,Pin_3*%
%TO.N,+3.3V*%
X137500000Y-97270000D03*
%TO.P,J2,2,Pin_2*%
%TO.N,Net-(J2-Pin_2)*%
X137500000Y-96000000D03*
D23*
%TO.P,J2,1,Pin_1*%
%TO.N,Net-(J2-Pin_1)*%
X137500000Y-94730000D03*
%TD*%
D24*
%TO.P,Y1,4,VDD*%
%TO.N,+3.3V*%
X128650000Y-94000000D03*
%TO.P,Y1,3,OUT*%
%TO.N,Net-(U1-XIN)*%
X130500000Y-94000000D03*
%TO.P,Y1,2,GND*%
%TO.N,GND*%
X130500000Y-95450000D03*
%TO.P,Y1,1,Tri-State*%
%TO.N,+3.3V*%
X128650000Y-95450000D03*
%TD*%
D13*
%TO.P,R5,2*%
%TO.N,GND*%
X141600000Y-67231250D03*
%TO.P,R5,1*%
%TO.N,Net-(J1-CC1)*%
X139600000Y-67231250D03*
%TD*%
D25*
%TO.P,C1,2*%
%TO.N,GND*%
X118100000Y-61231250D03*
%TO.P,C1,1*%
%TO.N,+3.3V*%
X118100000Y-63306250D03*
%TD*%
D17*
%TO.P,C7,2*%
%TO.N,GND*%
X126664564Y-59891250D03*
%TO.P,C7,1*%
%TO.N,Net-(J1-SHIELD)*%
X128739564Y-59891250D03*
%TD*%
D16*
%TO.P,C8,2*%
%TO.N,Net-(U3-EN)*%
X122600000Y-59731250D03*
%TO.P,C8,1*%
%TO.N,GND*%
X120525000Y-59731250D03*
%TD*%
D13*
%TO.P,R2,2*%
%TO.N,Net-(U1-USB_DP)*%
X142462500Y-72631250D03*
%TO.P,R2,1*%
%TO.N,Net-(R2-Pad1)*%
X140462500Y-72631250D03*
%TD*%
D15*
%TO.P,R6,2*%
%TO.N,GND*%
X126432064Y-62231250D03*
%TO.P,R6,1*%
%TO.N,Net-(J1-SHIELD)*%
X128432064Y-62231250D03*
%TD*%
D26*
%TO.P,U3,5,VOUT*%
%TO.N,+3.3V*%
X120325000Y-63631250D03*
%TO.P,U3,4,NC*%
%TO.N,unconnected-(U3-NC-Pad4)*%
X120325000Y-61731250D03*
%TO.P,U3,3,EN*%
%TO.N,Net-(U3-EN)*%
X122600000Y-61731250D03*
%TO.P,U3,2,GND*%
%TO.N,GND*%
X122600000Y-62681250D03*
%TO.P,U3,1,VIN*%
%TO.N,Net-(U3-EN)*%
X122600000Y-63631250D03*
%TD*%
D27*
%TO.P,U4,1,I/O1*%
%TO.N,Net-(J1-D+-PadA6)*%
X134825000Y-70281250D03*
%TO.P,U4,2,GND*%
%TO.N,GND*%
X134825000Y-71231250D03*
%TO.P,U4,3,I/O2*%
%TO.N,Net-(J1-D--PadA7)*%
X134825000Y-72181250D03*
%TO.P,U4,4,I/O2*%
%TO.N,Net-(R2-Pad1)*%
X137100000Y-72181250D03*
%TO.P,U4,5,VBUS*%
%TO.N,Net-(U3-EN)*%
X137100000Y-71231250D03*
%TO.P,U4,6,I/O1*%
%TO.N,Net-(R3-Pad1)*%
X137100000Y-70281250D03*
%TD*%
D28*
%TO.P,R4,2*%
%TO.N,GND*%
X132100000Y-69731250D03*
%TO.P,R4,1*%
%TO.N,Net-(J1-CC2)*%
X132100000Y-67731250D03*
%TD*%
D29*
%TO.N,GND*%
X125500000Y-62231250D03*
X126581657Y-62081657D03*
X139500000Y-82500000D03*
%TO.N,Net-(U3-EN)*%
X139110000Y-64806250D03*
X134310000Y-64806250D03*
%TO.N,Net-(U1-VREG_VOUT)*%
X133207455Y-85391023D03*
X132800000Y-82500000D03*
%TO.N,+3.3V*%
X134800000Y-80500000D03*
X133200000Y-80500000D03*
X120500000Y-65900000D03*
X120500000Y-67500000D03*
%TO.N,GND*%
X134000000Y-85500000D03*
X138100000Y-85500000D03*
%TD*%
D30*
%TO.N,+3.3V*%
X135400000Y-84093750D02*
X136700000Y-82793750D01*
%TO.N,GND*%
X125500000Y-62231250D02*
X126432064Y-62231250D01*
X126581657Y-62081657D02*
X126432064Y-62231250D01*
X137500000Y-62500000D02*
X139500000Y-62500000D01*
X136500000Y-62500000D02*
X137500000Y-62500000D01*
X133500000Y-62500000D02*
X136500000Y-62500000D01*
X140429000Y-63429000D02*
X140429000Y-64287250D01*
X140429000Y-64287250D02*
X139910000Y-64806250D01*
X139500000Y-62500000D02*
X140429000Y-63429000D01*
X133000000Y-64296250D02*
X133000000Y-63000000D01*
X133510000Y-64806250D02*
X133000000Y-64296250D01*
X133000000Y-63000000D02*
X133500000Y-62500000D01*
%TO.N,Net-(U1-VREG_VOUT)*%
X133207455Y-85391023D02*
X133698478Y-84900000D01*
X133698478Y-84900000D02*
X134329024Y-84900000D01*
X134329024Y-84900000D02*
X134600000Y-84629024D01*
X132800000Y-82800000D02*
X132800000Y-82500000D01*
X132600000Y-83400000D02*
X133000000Y-83000000D01*
X133000000Y-83000000D02*
X132800000Y-82800000D01*
X132600000Y-84093750D02*
X132600000Y-83400000D01*
X134600000Y-84093750D02*
X134600000Y-84900000D01*
X134600000Y-84900000D02*
X134701000Y-85001000D01*
%TO.N,+3.3V*%
X136068750Y-80500000D02*
X136237500Y-80668750D01*
X134800000Y-80500000D02*
X136068750Y-80500000D01*
X132000000Y-80268750D02*
X132968750Y-80268750D01*
X132968750Y-80268750D02*
X133200000Y-80500000D01*
X120500000Y-67548750D02*
X123095000Y-70143750D01*
X120500000Y-67500000D02*
X120500000Y-67548750D01*
X120500000Y-63806250D02*
X120500000Y-65900000D01*
X120325000Y-63631250D02*
X120500000Y-63806250D01*
%TO.N,GND*%
X138275000Y-85500000D02*
X138775000Y-85000000D01*
X138775000Y-85000000D02*
X138775000Y-87275000D01*
X138100000Y-85500000D02*
X138275000Y-85500000D01*
X134000000Y-86331250D02*
X134000000Y-85500000D01*
X132800000Y-87531250D02*
X134000000Y-86331250D01*
X117074000Y-63878910D02*
X117074000Y-62257250D01*
X131000000Y-66500000D02*
X119695090Y-66500000D01*
X131000000Y-68631250D02*
X131000000Y-66500000D01*
X117074000Y-62257250D02*
X118100000Y-61231250D01*
X132100000Y-69731250D02*
X131000000Y-68631250D01*
X119695090Y-66500000D02*
X117074000Y-63878910D01*
%TO.N,+3.3V*%
X132000000Y-80268750D02*
X130238800Y-80268750D01*
X130238800Y-80268750D02*
X129735025Y-79764975D01*
X129735025Y-70264975D02*
X129735025Y-79764975D01*
X127698300Y-68228250D02*
X129735025Y-70264975D01*
X124771750Y-68228250D02*
X127698300Y-68228250D01*
X123095000Y-69905000D02*
X124771750Y-68228250D01*
X123095000Y-70143750D02*
X123095000Y-69905000D01*
X137500000Y-88500000D02*
X137531250Y-88531250D01*
X137500000Y-85000000D02*
X137500000Y-88500000D01*
X137431250Y-84931250D02*
X137500000Y-85000000D01*
X136237500Y-84931250D02*
X137431250Y-84931250D01*
X135400000Y-84093750D02*
X136237500Y-84931250D01*
X135400000Y-84093750D02*
X135000000Y-84093750D01*
%TO.N,GND*%
X142500000Y-95500000D02*
X139460000Y-98540000D01*
X142500000Y-91000000D02*
X142500000Y-95500000D01*
X138775000Y-87275000D02*
X142500000Y-91000000D01*
X139460000Y-98540000D02*
X137500000Y-98540000D01*
X138775000Y-82631250D02*
X138775000Y-85000000D01*
X138775000Y-82631250D02*
X138953125Y-82453125D01*
X126905000Y-77318750D02*
X126905000Y-76506251D01*
X125898749Y-75500000D02*
X120500000Y-75500000D01*
X126905000Y-76506251D02*
X125898749Y-75500000D01*
%TO.N,Net-(U1-VREG_VOUT)*%
X134165726Y-89667750D02*
X133400000Y-90433476D01*
X134701000Y-89667750D02*
X134165726Y-89667750D01*
X134701000Y-85001000D02*
X134701000Y-89667750D01*
X133400000Y-90433476D02*
X133400000Y-90968750D01*
%TO.N,GND*%
X120500000Y-78000000D02*
X120500000Y-75500000D01*
X125200000Y-82700000D02*
X120500000Y-78000000D01*
X125200000Y-84131250D02*
X125200000Y-82700000D01*
X141600000Y-67231250D02*
X144768750Y-67231250D01*
X145000000Y-67000000D02*
X145000000Y-76406250D01*
X144768750Y-67231250D02*
X145000000Y-67000000D01*
X145000000Y-76406250D02*
X138775000Y-82631250D01*
X127500000Y-56000000D02*
X145000000Y-56000000D01*
X126664564Y-56835436D02*
X127500000Y-56000000D01*
X145000000Y-56000000D02*
X145000000Y-67000000D01*
X126664564Y-59891250D02*
X126664564Y-56835436D01*
X123712499Y-62231250D02*
X125500000Y-62231250D01*
X123262499Y-62681250D02*
X123712499Y-62231250D01*
X122600000Y-62681250D02*
X123262499Y-62681250D01*
X123172660Y-58705250D02*
X123563500Y-59096090D01*
X121551000Y-58705250D02*
X123172660Y-58705250D01*
X123563500Y-59096090D02*
X123563500Y-62380249D01*
X120525000Y-59731250D02*
X121551000Y-58705250D01*
X123563500Y-62380249D02*
X123262499Y-62681250D01*
X133600000Y-71231250D02*
X132100000Y-69731250D01*
X134825000Y-71231250D02*
X133600000Y-71231250D01*
X134162501Y-71231250D02*
X134825000Y-71231250D01*
X132000000Y-73393751D02*
X134162501Y-71231250D01*
X132000000Y-78193750D02*
X132000000Y-73393751D01*
X138775000Y-81131250D02*
X136237500Y-78593750D01*
X138775000Y-82631250D02*
X138775000Y-81131250D01*
X127000000Y-96500000D02*
X129450000Y-96500000D01*
X129450000Y-96500000D02*
X130500000Y-95450000D01*
X125200000Y-94700000D02*
X127000000Y-96500000D01*
X125200000Y-84131250D02*
X125200000Y-94700000D01*
%TO.N,+3.3V*%
X127275000Y-92625000D02*
X127275000Y-84131250D01*
X128650000Y-94000000D02*
X127275000Y-92625000D01*
X128650000Y-95450000D02*
X128650000Y-94000000D01*
%TO.N,GND*%
X131950000Y-95450000D02*
X133000000Y-96500000D01*
X130500000Y-95450000D02*
X131950000Y-95450000D01*
X135460000Y-96500000D02*
X137500000Y-98540000D01*
X133000000Y-96500000D02*
X135460000Y-96500000D01*
%TO.N,+3.3V*%
X140000000Y-94770000D02*
X140000000Y-92000000D01*
X137500000Y-97270000D02*
X140000000Y-94770000D01*
X140000000Y-91000000D02*
X140000000Y-92000000D01*
X137531250Y-88531250D02*
X140000000Y-91000000D01*
X136237500Y-88531250D02*
X137531250Y-88531250D01*
%TO.N,Net-(U1-RUN)*%
X135000000Y-92000000D02*
X138000000Y-92000000D01*
X134600000Y-91600000D02*
X135000000Y-92000000D01*
X134600000Y-90968750D02*
X134600000Y-91600000D01*
%TO.N,Net-(J2-Pin_1)*%
X134200000Y-92700000D02*
X136230000Y-94730000D01*
X136230000Y-94730000D02*
X137500000Y-94730000D01*
X134200000Y-90968750D02*
X134200000Y-92700000D01*
%TO.N,Net-(U1-VREG_VOUT)*%
X133400000Y-93400000D02*
X133000000Y-93800000D01*
X133400000Y-90968750D02*
X133400000Y-93400000D01*
X133000000Y-93800000D02*
X133000000Y-94425000D01*
%TO.N,Net-(J2-Pin_2)*%
X136792894Y-96000000D02*
X137500000Y-96000000D01*
X133800000Y-93007106D02*
X136792894Y-96000000D01*
X133800000Y-90968750D02*
X133800000Y-93007106D01*
%TO.N,Net-(U1-XIN)*%
X132200000Y-92300000D02*
X132200000Y-90968750D01*
X130500000Y-94000000D02*
X132200000Y-92300000D01*
%TO.N,Net-(U1-USB_DM)*%
X144100000Y-71768750D02*
X142462500Y-70131250D01*
X144100000Y-73731250D02*
X144100000Y-71768750D01*
X143600000Y-74231250D02*
X144100000Y-73731250D01*
X142100000Y-74231250D02*
X143600000Y-74231250D01*
X142100000Y-74579910D02*
X142100000Y-74231250D01*
X134200000Y-76631250D02*
X135600000Y-75231250D01*
X134200000Y-84093750D02*
X134200000Y-76631250D01*
X135600000Y-75231250D02*
X141448660Y-75231250D01*
X141448660Y-75231250D02*
X142100000Y-74579910D01*
%TO.N,Net-(U1-USB_DP)*%
X140862500Y-74231250D02*
X142462500Y-72631250D01*
X135600000Y-74231250D02*
X140862500Y-74231250D01*
X133800000Y-76031250D02*
X135600000Y-74231250D01*
X133800000Y-84093750D02*
X133800000Y-76031250D01*
%TO.N,+3.3V*%
X132737500Y-90131250D02*
X130737500Y-90131250D01*
X130737500Y-90131250D02*
X130237500Y-89631250D01*
X135000000Y-84093750D02*
X135000000Y-81906250D01*
X130237500Y-89631250D02*
X130237500Y-88191524D01*
X135000000Y-81906250D02*
X136237500Y-80668750D01*
%TO.N,Net-(U1-~{QSPI_SS})*%
X130200000Y-84093750D02*
X129667510Y-84093750D01*
X129667510Y-84093750D02*
X123095000Y-77521240D01*
%TO.N,Net-(U1-QSPI_SD0)*%
X128000000Y-79731250D02*
X131400000Y-83131250D01*
%TO.N,Net-(U1-QSPI_SCLK)*%
X128533550Y-79697700D02*
X131800000Y-82964150D01*
%TO.N,Net-(U1-QSPI_SD3)*%
X127532200Y-68629250D02*
X125067001Y-68629250D01*
%TO.N,Net-(U1-QSPI_SCLK)*%
X128533550Y-70197700D02*
X128533550Y-79697700D01*
%TO.N,Net-(U1-QSPI_SD3)*%
X125067001Y-68629250D02*
X124365000Y-69331251D01*
%TO.N,Net-(U1-QSPI_SD0)*%
X128000000Y-70231250D02*
X128000000Y-79731250D01*
%TO.N,Net-(U1-QSPI_SD1)*%
X124365000Y-77318750D02*
X124365000Y-78131249D01*
X130600000Y-83558476D02*
X130600000Y-84093750D01*
%TO.N,Net-(U1-QSPI_SD2)*%
X131000000Y-83391376D02*
X125635000Y-78026376D01*
%TO.N,Net-(U1-QSPI_SD0)*%
X126905000Y-70143750D02*
X127912500Y-70143750D01*
%TO.N,Net-(U1-QSPI_SD2)*%
X125635000Y-78026376D02*
X125635000Y-77318750D01*
%TO.N,Net-(U1-~{QSPI_SS})*%
X123095000Y-77521240D02*
X123095000Y-77318750D01*
%TO.N,Net-(U1-QSPI_SD0)*%
X127912500Y-70143750D02*
X128000000Y-70231250D01*
%TO.N,Net-(U1-QSPI_SCLK)*%
X127366100Y-69030250D02*
X128533550Y-70197700D01*
X125635000Y-69941260D02*
X126546010Y-69030250D01*
%TO.N,Net-(U1-QSPI_SD1)*%
X130396774Y-83355250D02*
X130600000Y-83558476D01*
%TO.N,Net-(U1-QSPI_SD0)*%
X131400000Y-83131250D02*
X131400000Y-84093750D01*
%TO.N,Net-(U1-QSPI_SCLK)*%
X126546010Y-69030250D02*
X127366100Y-69030250D01*
X131800000Y-82964150D02*
X131800000Y-84093750D01*
%TO.N,Net-(U1-QSPI_SD1)*%
X124365000Y-78131249D02*
X129589001Y-83355250D01*
%TO.N,Net-(U1-QSPI_SD3)*%
X132200000Y-84093750D02*
X132200000Y-83131250D01*
X132200000Y-83131250D02*
X132201000Y-83130250D01*
X132201000Y-82798050D02*
X128934550Y-79531600D01*
X132201000Y-83130250D02*
X132201000Y-82798050D01*
X128934550Y-79531600D02*
X128934550Y-70031600D01*
%TO.N,Net-(U1-QSPI_SD2)*%
X131000000Y-84093750D02*
X131000000Y-83391376D01*
%TO.N,Net-(U1-QSPI_SD3)*%
X128934550Y-70031600D02*
X127532200Y-68629250D01*
%TO.N,Net-(U1-QSPI_SD1)*%
X129589001Y-83355250D02*
X130396774Y-83355250D01*
%TO.N,Net-(U1-QSPI_SCLK)*%
X125635000Y-70143750D02*
X125635000Y-69941260D01*
%TO.N,Net-(U1-QSPI_SD3)*%
X124365000Y-69331251D02*
X124365000Y-70143750D01*
%TO.N,+3.3V*%
X133400000Y-81668750D02*
X132000000Y-80268750D01*
X133400000Y-84093750D02*
X133400000Y-81668750D01*
X133000000Y-90393750D02*
X132737500Y-90131250D01*
X133400000Y-84093750D02*
X133000000Y-84093750D01*
X133000000Y-90968750D02*
X133000000Y-90393750D01*
X127675000Y-83731250D02*
X127275000Y-84131250D01*
X129362500Y-84931250D02*
X129037500Y-84931250D01*
X128237500Y-84131250D02*
X127275000Y-84131250D01*
X130037500Y-84931250D02*
X130237500Y-85131250D01*
X129362500Y-88531250D02*
X129895774Y-88531250D01*
X129895774Y-88531250D02*
X129896774Y-88532250D01*
X130237500Y-85131250D02*
X130237500Y-88191524D01*
X132697774Y-84931250D02*
X133001000Y-84628024D01*
X133000000Y-84627024D02*
X133001000Y-84628024D01*
X133000000Y-84093750D02*
X133000000Y-84627024D01*
X129362500Y-84931250D02*
X130037500Y-84931250D01*
X136700000Y-82793750D02*
X136700000Y-82631250D01*
X130237500Y-88191524D02*
X129896774Y-88532250D01*
X129037500Y-84931250D02*
X128237500Y-84131250D01*
X129362500Y-84931250D02*
X132697774Y-84931250D01*
%TO.N,Net-(J1-D--PadA7)*%
X136100000Y-71568749D02*
X136100000Y-69573350D01*
%TO.N,Net-(J1-SHIELD)*%
X129600000Y-62231250D02*
X131600000Y-64231250D01*
%TO.N,Net-(U3-EN)*%
X140948660Y-71231250D02*
X141363500Y-70816410D01*
%TO.N,Net-(J1-CC1)*%
X137960000Y-65591250D02*
X137960000Y-64806250D01*
%TO.N,GND*%
X141600000Y-66496250D02*
X139910000Y-64806250D01*
%TO.N,Net-(J1-SHIELD)*%
X128739564Y-59891250D02*
X131190000Y-59891250D01*
X141820000Y-60301250D02*
X141820000Y-64231250D01*
%TO.N,Net-(J1-D--PadA7)*%
X134825000Y-72181250D02*
X135487499Y-72181250D01*
%TO.N,Net-(U3-EN)*%
X141363500Y-68580910D02*
X140600000Y-67817410D01*
%TO.N,Net-(J1-D--PadA7)*%
X136688088Y-68985262D02*
X136688088Y-65643162D01*
%TO.N,Net-(J1-D+-PadA6)*%
X134825000Y-70281250D02*
X135960000Y-69146250D01*
X135960000Y-69146250D02*
X135960000Y-64806250D01*
%TO.N,Net-(J1-D--PadA7)*%
X136688088Y-65643162D02*
X136727176Y-65682250D01*
X135487499Y-72181250D02*
X136100000Y-71568749D01*
%TO.N,GND*%
X141600000Y-67231250D02*
X141600000Y-66496250D01*
%TO.N,Net-(U3-EN)*%
X140600000Y-66645090D02*
X139637160Y-65682250D01*
X139411001Y-65682250D02*
X139110000Y-65381249D01*
%TO.N,Net-(J1-SHIELD)*%
X131600000Y-60301250D02*
X141820000Y-60301250D01*
%TO.N,Net-(U3-EN)*%
X139110000Y-65381249D02*
X139110000Y-64806250D01*
%TO.N,Net-(J1-D--PadA7)*%
X136100000Y-69573350D02*
X136688088Y-68985262D01*
%TO.N,GND*%
X126664564Y-59891250D02*
X126664564Y-61998750D01*
%TO.N,Net-(J1-SHIELD)*%
X131600000Y-64231250D02*
X131600000Y-60301250D01*
%TO.N,Net-(J1-CC1)*%
X139600000Y-67231250D02*
X137960000Y-65591250D01*
%TO.N,Net-(U3-EN)*%
X141363500Y-70816410D02*
X141363500Y-68580910D01*
%TO.N,Net-(J1-SHIELD)*%
X128432064Y-62231250D02*
X129600000Y-62231250D01*
X131190000Y-59891250D02*
X131600000Y-60301250D01*
%TO.N,Net-(U3-EN)*%
X140600000Y-67817410D02*
X140600000Y-66645090D01*
X137100000Y-71231250D02*
X140948660Y-71231250D01*
X139637160Y-65682250D02*
X139411001Y-65682250D01*
%TO.N,GND*%
X126664564Y-61998750D02*
X126581657Y-62081657D01*
%TO.N,Net-(J1-CC2)*%
X132100000Y-67731250D02*
X132800000Y-67731250D01*
X134960000Y-65571250D02*
X134960000Y-64806250D01*
%TO.N,Net-(U3-EN)*%
X134008999Y-65682250D02*
X134310000Y-65381249D01*
X122100000Y-61731250D02*
X122600000Y-61731250D01*
X124651000Y-65682250D02*
X134008999Y-65682250D01*
%TO.N,Net-(J1-CC2)*%
X132800000Y-67731250D02*
X134960000Y-65571250D01*
%TO.N,Net-(U3-EN)*%
X134310000Y-65381249D02*
X134310000Y-64806250D01*
X122600000Y-63631250D02*
X124651000Y-65682250D01*
X121600000Y-62231250D02*
X122100000Y-61731250D01*
%TO.N,GND*%
X120525000Y-59731250D02*
X119600000Y-59731250D01*
%TO.N,+3.3V*%
X120000000Y-63306250D02*
X120325000Y-63631250D01*
%TO.N,Net-(U3-EN)*%
X121600000Y-63293749D02*
X121600000Y-62231250D01*
X122600000Y-63631250D02*
X121937501Y-63631250D01*
X121937501Y-63631250D02*
X121600000Y-63293749D01*
%TO.N,+3.3V*%
X118100000Y-63306250D02*
X120000000Y-63306250D01*
%TO.N,GND*%
X119600000Y-59731250D02*
X118100000Y-61231250D01*
%TO.N,Net-(U3-EN)*%
X122600000Y-59731250D02*
X122600000Y-61731250D01*
%TO.N,Net-(R3-Pad1)*%
X140462500Y-70131250D02*
X137250000Y-70131250D01*
%TO.N,Net-(R2-Pad1)*%
X140462500Y-72631250D02*
X137550000Y-72631250D01*
%TO.N,Net-(J1-D+-PadA6)*%
X135960000Y-64806250D02*
X135960000Y-64197426D01*
%TO.N,Net-(J1-D--PadA7)*%
X136460000Y-64806250D02*
X136460000Y-65415074D01*
%TO.N,Net-(J1-D+-PadA6)*%
X136692824Y-63930250D02*
X136960000Y-64197426D01*
%TO.N,Net-(J1-D--PadA7)*%
X137192824Y-65682250D02*
X137460000Y-65415074D01*
X136460000Y-65415074D02*
X136688088Y-65643162D01*
%TO.N,Net-(J1-D+-PadA6)*%
X136227176Y-63930250D02*
X136692824Y-63930250D01*
X136960000Y-64197426D02*
X136960000Y-64806250D01*
%TO.N,Net-(R3-Pad1)*%
X137250000Y-70131250D02*
X137100000Y-70281250D01*
%TO.N,Net-(R2-Pad1)*%
X137550000Y-72631250D02*
X137100000Y-72181250D01*
%TO.N,Net-(J1-D--PadA7)*%
X137100000Y-65682250D02*
X137192824Y-65682250D01*
%TO.N,Net-(J1-D+-PadA6)*%
X135960000Y-64197426D02*
X136227176Y-63930250D01*
%TO.N,Net-(J1-D--PadA7)*%
X136727176Y-65682250D02*
X137100000Y-65682250D01*
X137460000Y-65415074D02*
X137460000Y-64806250D01*
%TD*%
%TA.AperFunction,Conductor*%
%TO.N,GND*%
G36*
X132384651Y-85551435D02*
G01*
X132430406Y-85604239D01*
X132436272Y-85619751D01*
X132437720Y-85624526D01*
X132498057Y-85770195D01*
X132498064Y-85770208D01*
X132585665Y-85901311D01*
X132585668Y-85901315D01*
X132697162Y-86012809D01*
X132697166Y-86012812D01*
X132828269Y-86100413D01*
X132828282Y-86100420D01*
X132973953Y-86160758D01*
X132973958Y-86160760D01*
X133128608Y-86191522D01*
X133128611Y-86191523D01*
X133128613Y-86191523D01*
X133286299Y-86191523D01*
X133286300Y-86191522D01*
X133440952Y-86160760D01*
X133586634Y-86100417D01*
X133717744Y-86012812D01*
X133829244Y-85901312D01*
X133849287Y-85871316D01*
X133873398Y-85835232D01*
X133927010Y-85790426D01*
X133996335Y-85781719D01*
X134059362Y-85811873D01*
X134096082Y-85871316D01*
X134100500Y-85904122D01*
X134100500Y-88968395D01*
X134094404Y-88989153D01*
X134093043Y-89010748D01*
X134084754Y-89022016D01*
X134080815Y-89035434D01*
X134064466Y-89049600D01*
X134051645Y-89067032D01*
X134034809Y-89075298D01*
X134028011Y-89081189D01*
X134020812Y-89084207D01*
X134014801Y-89086506D01*
X133933941Y-89108173D01*
X133894837Y-89130750D01*
X133886332Y-89135660D01*
X133886325Y-89135663D01*
X133797013Y-89187227D01*
X133797008Y-89187231D01*
X133307544Y-89676696D01*
X133246221Y-89710181D01*
X133176529Y-89705197D01*
X133150348Y-89691697D01*
X133140549Y-89685063D01*
X133106216Y-89650730D01*
X132998764Y-89588693D01*
X132994926Y-89586477D01*
X132994923Y-89586475D01*
X132969283Y-89571672D01*
X132913381Y-89556693D01*
X132816557Y-89530749D01*
X132658443Y-89530749D01*
X132650847Y-89530749D01*
X132650831Y-89530750D01*
X131037598Y-89530750D01*
X131008157Y-89522105D01*
X130978171Y-89515582D01*
X130973155Y-89511827D01*
X130970559Y-89511065D01*
X130949917Y-89494431D01*
X130874319Y-89418833D01*
X130840834Y-89357510D01*
X130838000Y-89331152D01*
X130838000Y-85655750D01*
X130857685Y-85588711D01*
X130910489Y-85542956D01*
X130962000Y-85531750D01*
X132317612Y-85531750D01*
X132384651Y-85551435D01*
G37*
%TD.AperFunction*%
%TA.AperFunction,Conductor*%
G36*
X121540156Y-64149248D02*
G01*
X121564356Y-64177171D01*
X121564639Y-64176952D01*
X121568667Y-64182146D01*
X121569225Y-64182789D01*
X121569413Y-64183106D01*
X121569423Y-64183120D01*
X121685629Y-64299326D01*
X121685633Y-64299329D01*
X121685635Y-64299331D01*
X121827102Y-64382994D01*
X121865838Y-64394248D01*
X121984926Y-64428847D01*
X121984929Y-64428847D01*
X121984931Y-64428848D01*
X122021806Y-64431750D01*
X122499903Y-64431750D01*
X122566942Y-64451435D01*
X122587584Y-64468069D01*
X124166139Y-66046624D01*
X124166149Y-66046635D01*
X124170479Y-66050965D01*
X124170480Y-66050966D01*
X124282284Y-66162770D01*
X124362693Y-66209193D01*
X124369095Y-66212889D01*
X124369097Y-66212891D01*
X124407151Y-66234861D01*
X124419215Y-66241827D01*
X124571943Y-66282751D01*
X124571946Y-66282751D01*
X124737653Y-66282751D01*
X124737669Y-66282750D01*
X133099903Y-66282750D01*
X133166942Y-66302435D01*
X133212697Y-66355239D01*
X133222641Y-66424397D01*
X133193616Y-66487953D01*
X133187603Y-66494410D01*
X133053462Y-66628552D01*
X133010005Y-66672009D01*
X132948681Y-66705493D01*
X132878990Y-66700509D01*
X132869922Y-66696711D01*
X132869336Y-66696437D01*
X132869334Y-66696436D01*
X132702797Y-66641251D01*
X132702795Y-66641250D01*
X132600010Y-66630750D01*
X131599998Y-66630750D01*
X131599980Y-66630751D01*
X131497203Y-66641250D01*
X131497200Y-66641251D01*
X131330668Y-66696435D01*
X131330663Y-66696437D01*
X131181342Y-66788539D01*
X131057289Y-66912592D01*
X130965187Y-67061913D01*
X130965186Y-67061916D01*
X130910001Y-67228453D01*
X130910001Y-67228454D01*
X130910000Y-67228454D01*
X130899500Y-67331233D01*
X130899500Y-68131251D01*
X130899501Y-68131269D01*
X130910000Y-68234046D01*
X130910001Y-68234049D01*
X130965185Y-68400581D01*
X130965187Y-68400586D01*
X131057289Y-68549907D01*
X131151304Y-68643922D01*
X131184789Y-68705245D01*
X131179805Y-68774937D01*
X131151305Y-68819284D01*
X131057682Y-68912907D01*
X130965643Y-69062125D01*
X130965641Y-69062130D01*
X130910494Y-69228552D01*
X130910493Y-69228559D01*
X130900000Y-69331263D01*
X130900000Y-69481250D01*
X133299999Y-69481250D01*
X133299999Y-69331278D01*
X133299998Y-69331263D01*
X133289505Y-69228552D01*
X133234358Y-69062130D01*
X133234356Y-69062125D01*
X133142315Y-68912904D01*
X133048695Y-68819284D01*
X133015210Y-68757961D01*
X133020194Y-68688269D01*
X133048691Y-68643926D01*
X133142712Y-68549906D01*
X133234814Y-68400584D01*
X133289999Y-68234047D01*
X133300500Y-68131259D01*
X133300499Y-68131244D01*
X133300660Y-68128110D01*
X133300820Y-68128118D01*
X133300821Y-68128117D01*
X133300844Y-68128119D01*
X133301448Y-68128150D01*
X133320162Y-68064341D01*
X133336813Y-68043670D01*
X135147819Y-66232665D01*
X135209142Y-66199180D01*
X135278834Y-66204164D01*
X135334767Y-66246036D01*
X135359184Y-66311500D01*
X135359500Y-66320346D01*
X135359500Y-68846153D01*
X135339815Y-68913192D01*
X135323181Y-68933834D01*
X134812584Y-69444431D01*
X134751261Y-69477916D01*
X134724903Y-69480750D01*
X134246798Y-69480750D01*
X134209932Y-69483651D01*
X134209926Y-69483652D01*
X134052106Y-69529504D01*
X134052103Y-69529505D01*
X133910637Y-69613167D01*
X133910629Y-69613173D01*
X133794423Y-69729379D01*
X133794417Y-69729387D01*
X133710755Y-69870853D01*
X133710754Y-69870856D01*
X133664902Y-70028676D01*
X133664901Y-70028682D01*
X133662000Y-70065548D01*
X133662000Y-70496951D01*
X133664901Y-70533817D01*
X133664902Y-70533823D01*
X133710754Y-70691643D01*
X133710756Y-70691649D01*
X133711926Y-70693627D01*
X133712369Y-70695376D01*
X133713853Y-70698804D01*
X133713299Y-70699043D01*
X133729103Y-70761352D01*
X133713749Y-70813645D01*
X133714317Y-70813891D01*
X133712327Y-70818489D01*
X133711928Y-70819849D01*
X133711222Y-70821041D01*
X133711216Y-70821056D01*
X133665400Y-70978755D01*
X133665399Y-70978761D01*
X133665204Y-70981248D01*
X133665205Y-70981250D01*
X133930685Y-70981250D01*
X133993806Y-70998518D01*
X134052102Y-71032994D01*
X134093724Y-71045086D01*
X134209926Y-71078847D01*
X134209929Y-71078847D01*
X134209931Y-71078848D01*
X134246806Y-71081750D01*
X134246814Y-71081750D01*
X134701000Y-71081750D01*
X134709685Y-71084300D01*
X134718647Y-71083012D01*
X134742687Y-71093990D01*
X134768039Y-71101435D01*
X134773966Y-71108275D01*
X134782203Y-71112037D01*
X134796492Y-71134271D01*
X134813794Y-71154239D01*
X134816081Y-71164753D01*
X134819977Y-71170815D01*
X134825000Y-71205750D01*
X134825000Y-71256750D01*
X134805315Y-71323789D01*
X134752511Y-71369544D01*
X134701000Y-71380750D01*
X134246798Y-71380750D01*
X134209932Y-71383651D01*
X134209926Y-71383652D01*
X134052106Y-71429504D01*
X134052103Y-71429505D01*
X133993806Y-71463982D01*
X133930685Y-71481250D01*
X133665205Y-71481250D01*
X133665204Y-71481251D01*
X133665399Y-71483738D01*
X133665400Y-71483744D01*
X133711216Y-71641443D01*
X133711220Y-71641453D01*
X133711927Y-71642648D01*
X133712195Y-71643704D01*
X133714316Y-71648606D01*
X133713524Y-71648948D01*
X133729103Y-71710373D01*
X133713493Y-71763534D01*
X133713855Y-71763691D01*
X133712587Y-71766619D01*
X133711927Y-71768870D01*
X133710759Y-71770844D01*
X133710754Y-71770857D01*
X133664902Y-71928676D01*
X133664901Y-71928682D01*
X133662000Y-71965548D01*
X133662000Y-72396951D01*
X133664901Y-72433817D01*
X133664902Y-72433823D01*
X133710754Y-72591643D01*
X133710755Y-72591646D01*
X133794232Y-72732800D01*
X133794418Y-72733114D01*
X133794423Y-72733120D01*
X133910629Y-72849326D01*
X133910633Y-72849329D01*
X133910635Y-72849331D01*
X134052102Y-72932994D01*
X134093724Y-72945086D01*
X134209926Y-72978847D01*
X134209929Y-72978847D01*
X134209931Y-72978848D01*
X134246806Y-72981750D01*
X134246814Y-72981750D01*
X135403186Y-72981750D01*
X135403194Y-72981750D01*
X135440069Y-72978848D01*
X135440071Y-72978847D01*
X135440073Y-72978847D01*
X135481691Y-72966755D01*
X135597898Y-72932994D01*
X135739365Y-72849331D01*
X135855581Y-72733115D01*
X135855767Y-72732799D01*
X135855977Y-72732603D01*
X135860361Y-72726952D01*
X135861272Y-72727659D01*
X135906836Y-72685116D01*
X135975577Y-72672612D01*
X136040167Y-72699256D01*
X136064355Y-72727171D01*
X136064639Y-72726952D01*
X136068679Y-72732161D01*
X136069232Y-72732798D01*
X136069419Y-72733115D01*
X136069421Y-72733117D01*
X136069423Y-72733120D01*
X136185629Y-72849326D01*
X136185633Y-72849329D01*
X136185635Y-72849331D01*
X136327102Y-72932994D01*
X136368724Y-72945086D01*
X136484926Y-72978847D01*
X136484929Y-72978847D01*
X136484931Y-72978848D01*
X136521806Y-72981750D01*
X136999901Y-72981750D01*
X137066940Y-73001435D01*
X137087582Y-73018068D01*
X137181284Y-73111770D01*
X137268095Y-73161889D01*
X137268097Y-73161891D01*
X137306151Y-73183861D01*
X137318215Y-73190827D01*
X137470943Y-73231750D01*
X137629057Y-73231750D01*
X139282199Y-73231750D01*
X139300488Y-73237120D01*
X139319547Y-73237508D01*
X139333320Y-73246761D01*
X139349238Y-73251435D01*
X139361719Y-73265839D01*
X139377545Y-73276471D01*
X139389338Y-73297713D01*
X139394993Y-73304239D01*
X139396018Y-73306544D01*
X139398185Y-73311558D01*
X139427686Y-73400584D01*
X139457733Y-73449299D01*
X139461298Y-73457544D01*
X139464511Y-73483660D01*
X139471458Y-73509046D01*
X139468712Y-73517793D01*
X139469832Y-73526890D01*
X139458416Y-73550598D01*
X139450535Y-73575709D01*
X139443497Y-73581582D01*
X139439520Y-73589843D01*
X139417096Y-73603617D01*
X139396893Y-73620479D01*
X139385939Y-73622755D01*
X139379986Y-73626413D01*
X139369382Y-73626197D01*
X139347479Y-73630750D01*
X135520940Y-73630750D01*
X135480019Y-73641714D01*
X135480019Y-73641715D01*
X135442751Y-73651701D01*
X135368214Y-73671673D01*
X135368209Y-73671676D01*
X135231290Y-73750725D01*
X135231282Y-73750731D01*
X133319479Y-75662534D01*
X133299499Y-75697141D01*
X133291054Y-75711770D01*
X133240423Y-75799465D01*
X133199499Y-75952193D01*
X133199499Y-75952195D01*
X133199499Y-76120296D01*
X133199500Y-76120309D01*
X133199500Y-77220727D01*
X133179815Y-77287766D01*
X133127011Y-77333521D01*
X133057853Y-77343465D01*
X132994297Y-77314440D01*
X132987819Y-77308408D01*
X132943345Y-77263934D01*
X132794124Y-77171893D01*
X132794119Y-77171891D01*
X132627697Y-77116744D01*
X132627690Y-77116743D01*
X132524986Y-77106250D01*
X132250000Y-77106250D01*
X132250000Y-78069750D01*
X132230315Y-78136789D01*
X132177511Y-78182544D01*
X132126000Y-78193750D01*
X132000000Y-78193750D01*
X132000000Y-78319750D01*
X131980315Y-78386789D01*
X131927511Y-78432544D01*
X131876000Y-78443750D01*
X130775001Y-78443750D01*
X130775001Y-78581236D01*
X130785494Y-78683947D01*
X130840641Y-78850369D01*
X130840643Y-78850374D01*
X130932684Y-78999595D01*
X131056655Y-79123566D01*
X131056659Y-79123569D01*
X131059656Y-79125418D01*
X131061279Y-79127222D01*
X131062323Y-79128048D01*
X131062181Y-79128226D01*
X131106381Y-79177366D01*
X131117602Y-79246329D01*
X131089759Y-79310411D01*
X131059661Y-79336491D01*
X131056349Y-79338533D01*
X131056343Y-79338538D01*
X130932289Y-79462592D01*
X130900781Y-79513673D01*
X130852933Y-79591251D01*
X130841771Y-79609347D01*
X130834183Y-79616171D01*
X130829945Y-79625453D01*
X130808645Y-79639141D01*
X130789823Y-79656071D01*
X130778187Y-79658715D01*
X130771167Y-79663227D01*
X130736232Y-79668250D01*
X130538897Y-79668250D01*
X130471858Y-79648565D01*
X130451216Y-79631931D01*
X130371844Y-79552559D01*
X130338359Y-79491236D01*
X130335525Y-79464878D01*
X130335525Y-77806263D01*
X130775000Y-77806263D01*
X130775000Y-77943750D01*
X131750000Y-77943750D01*
X131750000Y-77106250D01*
X131475029Y-77106250D01*
X131475012Y-77106251D01*
X131372302Y-77116744D01*
X131205880Y-77171891D01*
X131205875Y-77171893D01*
X131056654Y-77263934D01*
X130932684Y-77387904D01*
X130840643Y-77537125D01*
X130840641Y-77537130D01*
X130785494Y-77703552D01*
X130785493Y-77703559D01*
X130775000Y-77806263D01*
X130335525Y-77806263D01*
X130335525Y-70185920D01*
X130335525Y-70185918D01*
X130320873Y-70131236D01*
X130900001Y-70131236D01*
X130910494Y-70233947D01*
X130965641Y-70400369D01*
X130965643Y-70400374D01*
X131057684Y-70549595D01*
X131181654Y-70673565D01*
X131330875Y-70765606D01*
X131330880Y-70765608D01*
X131497302Y-70820755D01*
X131497309Y-70820756D01*
X131600019Y-70831249D01*
X131849999Y-70831249D01*
X132350000Y-70831249D01*
X132599972Y-70831249D01*
X132599986Y-70831248D01*
X132702697Y-70820755D01*
X132869119Y-70765608D01*
X132869124Y-70765606D01*
X133018345Y-70673565D01*
X133142315Y-70549595D01*
X133234356Y-70400374D01*
X133234358Y-70400369D01*
X133289505Y-70233947D01*
X133289506Y-70233940D01*
X133299999Y-70131236D01*
X133300000Y-70131223D01*
X133300000Y-69981250D01*
X132350000Y-69981250D01*
X132350000Y-70831249D01*
X131849999Y-70831249D01*
X131850000Y-70831248D01*
X131850000Y-69981250D01*
X130900001Y-69981250D01*
X130900001Y-70131236D01*
X130320873Y-70131236D01*
X130294602Y-70033191D01*
X130294602Y-70033190D01*
X130248040Y-69952543D01*
X130215545Y-69896259D01*
X130103741Y-69784455D01*
X130103740Y-69784454D01*
X130099410Y-69780124D01*
X130099399Y-69780114D01*
X128185890Y-67866605D01*
X128185888Y-67866602D01*
X128067017Y-67747731D01*
X128067016Y-67747730D01*
X127980204Y-67697610D01*
X127980204Y-67697609D01*
X127980200Y-67697608D01*
X127930085Y-67668673D01*
X127777357Y-67627749D01*
X127619243Y-67627749D01*
X127611647Y-67627749D01*
X127611631Y-67627750D01*
X124858420Y-67627750D01*
X124858404Y-67627749D01*
X124850808Y-67627749D01*
X124692693Y-67627749D01*
X124616329Y-67648211D01*
X124539964Y-67668673D01*
X124539959Y-67668676D01*
X124403040Y-67747725D01*
X124403032Y-67747731D01*
X123356332Y-68794431D01*
X123295009Y-68827916D01*
X123268651Y-68830750D01*
X122878901Y-68830750D01*
X122812113Y-68836819D01*
X122750398Y-68856049D01*
X122680537Y-68857199D01*
X122625829Y-68825344D01*
X121336819Y-67536334D01*
X121303334Y-67475011D01*
X121300500Y-67448653D01*
X121300500Y-67421155D01*
X121300499Y-67421153D01*
X121282614Y-67331241D01*
X121269737Y-67266503D01*
X121246981Y-67211565D01*
X121209397Y-67120827D01*
X121209390Y-67120814D01*
X121121789Y-66989711D01*
X121121786Y-66989707D01*
X121010292Y-66878213D01*
X121010288Y-66878210D01*
X120897881Y-66803102D01*
X120853076Y-66749490D01*
X120844369Y-66680165D01*
X120874523Y-66617137D01*
X120897881Y-66596898D01*
X120944073Y-66566033D01*
X121010289Y-66521789D01*
X121121789Y-66410289D01*
X121209394Y-66279179D01*
X121269737Y-66133497D01*
X121300500Y-65978842D01*
X121300500Y-65821158D01*
X121300500Y-65821155D01*
X121300499Y-65821153D01*
X121285634Y-65746422D01*
X121269737Y-65666503D01*
X121231405Y-65573960D01*
X121209397Y-65520827D01*
X121209390Y-65520814D01*
X121121398Y-65389125D01*
X121100520Y-65322447D01*
X121100500Y-65320234D01*
X121100500Y-64452183D01*
X121120185Y-64385144D01*
X121161377Y-64345452D01*
X121239365Y-64299331D01*
X121355581Y-64183115D01*
X121355761Y-64182809D01*
X121355964Y-64182619D01*
X121360361Y-64176952D01*
X121361274Y-64177660D01*
X121406823Y-64135122D01*
X121475563Y-64122610D01*
X121540156Y-64149248D01*
G37*
%TD.AperFunction*%
%TA.AperFunction,Conductor*%
G36*
X140115703Y-64658847D02*
G01*
X140122181Y-64664879D01*
X140193181Y-64735879D01*
X140226666Y-64797202D01*
X140229500Y-64823559D01*
X140229500Y-65031250D01*
X140229501Y-65031269D01*
X140238918Y-65123451D01*
X140235296Y-65142929D01*
X140236664Y-65162695D01*
X140229042Y-65176575D01*
X140226148Y-65192144D01*
X140212570Y-65206572D01*
X140203035Y-65223939D01*
X140189119Y-65231495D01*
X140178267Y-65243028D01*
X140159043Y-65247825D01*
X140141633Y-65257280D01*
X140125841Y-65256113D01*
X140110477Y-65259948D01*
X140091709Y-65253590D01*
X140071953Y-65252131D01*
X140054830Y-65241098D01*
X140044301Y-65237532D01*
X140041016Y-65235144D01*
X140034048Y-65229902D01*
X140005876Y-65201730D01*
X139965977Y-65178694D01*
X139959956Y-65174165D01*
X139943405Y-65151946D01*
X139924284Y-65131893D01*
X139922263Y-65123565D01*
X139918217Y-65118133D01*
X139917128Y-65102397D01*
X139910500Y-65075073D01*
X139910500Y-64752560D01*
X139930185Y-64685521D01*
X139982989Y-64639766D01*
X140052147Y-64629822D01*
X140115703Y-64658847D01*
G37*
%TD.AperFunction*%
%TA.AperFunction,Conductor*%
G36*
X133395702Y-64338846D02*
G01*
X133402180Y-64344878D01*
X133473181Y-64415879D01*
X133506666Y-64477202D01*
X133509500Y-64503560D01*
X133509500Y-64957750D01*
X133506949Y-64966435D01*
X133508238Y-64975397D01*
X133497259Y-64999437D01*
X133489815Y-65024789D01*
X133482974Y-65030716D01*
X133479213Y-65038953D01*
X133456978Y-65053242D01*
X133437011Y-65070544D01*
X133426496Y-65072831D01*
X133420435Y-65076727D01*
X133385500Y-65081750D01*
X133314500Y-65081750D01*
X133247461Y-65062065D01*
X133201706Y-65009261D01*
X133190500Y-64957750D01*
X133190500Y-64735879D01*
X133190499Y-64432556D01*
X133210183Y-64365520D01*
X133262987Y-64319765D01*
X133332146Y-64309821D01*
X133395702Y-64338846D01*
G37*
%TD.AperFunction*%
%TA.AperFunction,Conductor*%
G36*
X140172540Y-60921435D02*
G01*
X140218295Y-60974239D01*
X140229501Y-61025750D01*
X140229501Y-61101268D01*
X140240000Y-61204046D01*
X140240001Y-61204049D01*
X140295185Y-61370581D01*
X140295186Y-61370584D01*
X140387288Y-61519906D01*
X140511344Y-61643962D01*
X140660666Y-61736064D01*
X140827203Y-61791249D01*
X140929991Y-61801750D01*
X141095500Y-61801749D01*
X141162539Y-61821433D01*
X141208294Y-61874237D01*
X141219500Y-61925749D01*
X141219500Y-62606750D01*
X141199815Y-62673789D01*
X141147011Y-62719544D01*
X141095501Y-62730750D01*
X140929999Y-62730750D01*
X140929980Y-62730751D01*
X140827203Y-62741250D01*
X140827200Y-62741251D01*
X140660668Y-62796435D01*
X140660663Y-62796437D01*
X140511342Y-62888539D01*
X140387289Y-63012592D01*
X140295187Y-63161913D01*
X140295185Y-63161918D01*
X140275655Y-63220856D01*
X140258189Y-63273567D01*
X140240001Y-63328454D01*
X140239999Y-63328462D01*
X140238707Y-63341106D01*
X140212308Y-63405797D01*
X140155126Y-63445945D01*
X140085315Y-63448805D01*
X140026348Y-63414235D01*
X140026252Y-63414332D01*
X140025883Y-63413963D01*
X140025040Y-63413469D01*
X140023057Y-63411137D01*
X139922666Y-63310746D01*
X139922661Y-63310742D01*
X139802838Y-63241563D01*
X139802837Y-63241562D01*
X139802836Y-63241562D01*
X139669183Y-63205750D01*
X139530817Y-63205750D01*
X139397164Y-63241562D01*
X139397161Y-63241563D01*
X139277338Y-63310742D01*
X139277333Y-63310746D01*
X139179496Y-63408583D01*
X139179492Y-63408588D01*
X139110313Y-63528411D01*
X139110313Y-63528412D01*
X139110312Y-63528414D01*
X139099544Y-63568602D01*
X139080723Y-63638844D01*
X139070571Y-63655498D01*
X139065006Y-63674188D01*
X139052762Y-63684715D01*
X139044358Y-63698504D01*
X139026816Y-63707025D01*
X139012028Y-63719741D01*
X138991556Y-63724153D01*
X138981511Y-63729033D01*
X138978125Y-63729554D01*
X138969575Y-63730750D01*
X138894306Y-63730750D01*
X138857431Y-63733652D01*
X138772571Y-63758305D01*
X138763720Y-63759544D01*
X138737636Y-63755691D01*
X138711267Y-63755616D01*
X138699094Y-63751303D01*
X138687797Y-63746624D01*
X138685236Y-63745563D01*
X138670698Y-63743649D01*
X138572727Y-63730750D01*
X138572720Y-63730750D01*
X138347280Y-63730750D01*
X138347272Y-63730750D01*
X138266962Y-63741324D01*
X138234764Y-63745563D01*
X138234762Y-63745563D01*
X138226708Y-63746624D01*
X138226316Y-63743649D01*
X138193684Y-63743649D01*
X138193292Y-63746624D01*
X138185237Y-63745563D01*
X138185236Y-63745563D01*
X138153038Y-63741324D01*
X138072727Y-63730750D01*
X138072720Y-63730750D01*
X137847280Y-63730750D01*
X137847272Y-63730750D01*
X137766962Y-63741324D01*
X137734764Y-63745563D01*
X137734762Y-63745563D01*
X137726708Y-63746624D01*
X137726316Y-63743649D01*
X137693684Y-63743649D01*
X137693292Y-63746624D01*
X137685237Y-63745563D01*
X137685236Y-63745563D01*
X137653038Y-63741324D01*
X137572727Y-63730750D01*
X137572720Y-63730750D01*
X137393921Y-63730750D01*
X137364480Y-63722105D01*
X137334494Y-63715582D01*
X137329478Y-63711827D01*
X137326882Y-63711065D01*
X137306240Y-63694431D01*
X137180414Y-63568605D01*
X137180412Y-63568602D01*
X137061541Y-63449731D01*
X137061533Y-63449725D01*
X136974479Y-63399465D01*
X136974478Y-63399465D01*
X136924609Y-63370673D01*
X136771881Y-63329749D01*
X136613767Y-63329749D01*
X136606171Y-63329749D01*
X136606155Y-63329750D01*
X136313845Y-63329750D01*
X136313829Y-63329749D01*
X136306233Y-63329749D01*
X136148119Y-63329749D01*
X135995391Y-63370673D01*
X135945522Y-63399465D01*
X135945521Y-63399465D01*
X135858466Y-63449725D01*
X135858458Y-63449731D01*
X135613759Y-63694431D01*
X135552436Y-63727916D01*
X135526078Y-63730750D01*
X135347272Y-63730750D01*
X135266962Y-63741324D01*
X135234764Y-63745563D01*
X135234762Y-63745563D01*
X135226708Y-63746624D01*
X135226316Y-63743649D01*
X135193684Y-63743649D01*
X135193292Y-63746624D01*
X135185237Y-63745563D01*
X135185236Y-63745563D01*
X135153038Y-63741324D01*
X135072727Y-63730750D01*
X135072720Y-63730750D01*
X134847280Y-63730750D01*
X134847272Y-63730750D01*
X134734766Y-63745562D01*
X134732026Y-63746696D01*
X134720905Y-63751303D01*
X134656278Y-63759545D01*
X134647435Y-63758308D01*
X134562569Y-63733652D01*
X134525694Y-63730750D01*
X134450424Y-63730750D01*
X134441874Y-63729554D01*
X134417584Y-63718573D01*
X134392013Y-63711065D01*
X134386241Y-63704404D01*
X134378208Y-63700773D01*
X134363709Y-63678400D01*
X134346258Y-63658261D01*
X134340776Y-63643014D01*
X134340209Y-63642139D01*
X134340206Y-63641428D01*
X134339277Y-63638844D01*
X134309688Y-63528414D01*
X134253590Y-63431249D01*
X134240507Y-63408588D01*
X134240503Y-63408583D01*
X134142666Y-63310746D01*
X134142661Y-63310742D01*
X134022838Y-63241563D01*
X134022837Y-63241562D01*
X134022836Y-63241562D01*
X133889183Y-63205750D01*
X133750817Y-63205750D01*
X133617164Y-63241562D01*
X133617161Y-63241563D01*
X133497338Y-63310742D01*
X133497333Y-63310746D01*
X133393748Y-63414332D01*
X133391691Y-63412275D01*
X133346527Y-63445212D01*
X133276778Y-63449325D01*
X133215878Y-63415077D01*
X133183162Y-63353340D01*
X133181292Y-63341119D01*
X133179999Y-63328453D01*
X133124814Y-63161916D01*
X133032712Y-63012594D01*
X132908656Y-62888538D01*
X132783052Y-62811065D01*
X132759336Y-62796437D01*
X132759331Y-62796435D01*
X132757862Y-62795948D01*
X132592797Y-62741251D01*
X132592795Y-62741250D01*
X132490016Y-62730750D01*
X132490009Y-62730750D01*
X132324500Y-62730750D01*
X132257461Y-62711065D01*
X132211706Y-62658261D01*
X132200500Y-62606750D01*
X132200500Y-61925749D01*
X132220185Y-61858710D01*
X132272989Y-61812955D01*
X132324500Y-61801749D01*
X132490002Y-61801749D01*
X132490008Y-61801749D01*
X132592797Y-61791249D01*
X132759334Y-61736064D01*
X132908656Y-61643962D01*
X133032712Y-61519906D01*
X133124814Y-61370584D01*
X133179999Y-61204047D01*
X133190500Y-61101259D01*
X133190500Y-61025750D01*
X133210185Y-60958711D01*
X133262989Y-60912956D01*
X133314500Y-60901750D01*
X140105501Y-60901750D01*
X140172540Y-60921435D01*
G37*
%TD.AperFunction*%
%TA.AperFunction,Conductor*%
G36*
X145942539Y-55020185D02*
G01*
X145988294Y-55072989D01*
X145999500Y-55124500D01*
X145999500Y-76723739D01*
X145979815Y-76790778D01*
X145958911Y-76815492D01*
X140713010Y-81584493D01*
X140703144Y-81593461D01*
X140692686Y-81599500D01*
X140654522Y-81637662D01*
X140652334Y-81639652D01*
X140614569Y-81673984D01*
X140610982Y-81678224D01*
X140602913Y-81688237D01*
X140599495Y-81692692D01*
X140573976Y-81736889D01*
X140573977Y-81736890D01*
X140572493Y-81739458D01*
X140543325Y-81784849D01*
X140539647Y-81796351D01*
X140533612Y-81806805D01*
X140533608Y-81806812D01*
X140533608Y-81806814D01*
X140519634Y-81858963D01*
X140503201Y-81910376D01*
X140502626Y-81922438D01*
X140499500Y-81934105D01*
X140499500Y-81985130D01*
X140499360Y-81991027D01*
X140496932Y-82042011D01*
X140497404Y-82047667D01*
X140499500Y-82067146D01*
X140499500Y-87565891D01*
X140533608Y-87693187D01*
X140566554Y-87750250D01*
X140599500Y-87807314D01*
X140599502Y-87807316D01*
X143463181Y-90670995D01*
X143496666Y-90732318D01*
X143499500Y-90758676D01*
X143499500Y-96216620D01*
X143479815Y-96283659D01*
X143457155Y-96309939D01*
X139847009Y-99468819D01*
X139783594Y-99498151D01*
X139765354Y-99499500D01*
X138136286Y-99499500D01*
X138069247Y-99479815D01*
X138023492Y-99427011D01*
X138021499Y-99415051D01*
X137500001Y-98893553D01*
X137500000Y-98893553D01*
X136977031Y-99416520D01*
X136974097Y-99431992D01*
X136926033Y-99482702D01*
X136863713Y-99499500D01*
X135758676Y-99499500D01*
X135691637Y-99479815D01*
X135670995Y-99463181D01*
X133865150Y-97657336D01*
X133831665Y-97596013D01*
X133836649Y-97526321D01*
X133878521Y-97470388D01*
X133887735Y-97464116D01*
X133943343Y-97429817D01*
X134067315Y-97305845D01*
X134159356Y-97156624D01*
X134159358Y-97156619D01*
X134214505Y-96990197D01*
X134214506Y-96990190D01*
X134224999Y-96887486D01*
X134225000Y-96887473D01*
X134225000Y-96750000D01*
X131775001Y-96750000D01*
X131775001Y-96887486D01*
X131785494Y-96990197D01*
X131840641Y-97156619D01*
X131840646Y-97156630D01*
X131935495Y-97310403D01*
X131953936Y-97377795D01*
X131933014Y-97444459D01*
X131879372Y-97489229D01*
X131829957Y-97499500D01*
X127258676Y-97499500D01*
X127191637Y-97479815D01*
X127170995Y-97463181D01*
X124536819Y-94829005D01*
X124503334Y-94767682D01*
X124500500Y-94741324D01*
X124500500Y-85448119D01*
X124520185Y-85381080D01*
X124572989Y-85335325D01*
X124642147Y-85325381D01*
X124663505Y-85330413D01*
X124709805Y-85345755D01*
X124709809Y-85345756D01*
X124812519Y-85356249D01*
X124949999Y-85356249D01*
X124950000Y-85356248D01*
X124950000Y-82906250D01*
X124812527Y-82906250D01*
X124812512Y-82906251D01*
X124709802Y-82916744D01*
X124543380Y-82971891D01*
X124543371Y-82971895D01*
X124401893Y-83059160D01*
X124334501Y-83077600D01*
X124267838Y-83056677D01*
X124249116Y-83041302D01*
X119036819Y-77829005D01*
X119003334Y-77767682D01*
X119000500Y-77741324D01*
X119000500Y-66934110D01*
X119000500Y-66934108D01*
X118966392Y-66806814D01*
X118900500Y-66692686D01*
X118807314Y-66599500D01*
X116036819Y-63829005D01*
X116003334Y-63767682D01*
X116000500Y-63741324D01*
X116000500Y-62918733D01*
X116874500Y-62918733D01*
X116874500Y-63693751D01*
X116874501Y-63693769D01*
X116885000Y-63796546D01*
X116885001Y-63796549D01*
X116940185Y-63963081D01*
X116940187Y-63963086D01*
X116960244Y-63995604D01*
X117032288Y-64112406D01*
X117156344Y-64236462D01*
X117305666Y-64328564D01*
X117472203Y-64383749D01*
X117574991Y-64394250D01*
X118625008Y-64394249D01*
X118625016Y-64394248D01*
X118625019Y-64394248D01*
X118681302Y-64388498D01*
X118727797Y-64383749D01*
X118894334Y-64328564D01*
X119043656Y-64236462D01*
X119108728Y-64171389D01*
X119170047Y-64137907D01*
X119239739Y-64142891D01*
X119288071Y-64178429D01*
X119288902Y-64177599D01*
X119294344Y-64183041D01*
X119294382Y-64183069D01*
X119294416Y-64183113D01*
X119410629Y-64299326D01*
X119410633Y-64299329D01*
X119410635Y-64299331D01*
X119552102Y-64382994D01*
X119590838Y-64394248D01*
X119709926Y-64428847D01*
X119709929Y-64428847D01*
X119709931Y-64428848D01*
X119746806Y-64431750D01*
X119775500Y-64431750D01*
X119842539Y-64451435D01*
X119888294Y-64504239D01*
X119899500Y-64555750D01*
X119899500Y-65320234D01*
X119879815Y-65387273D01*
X119878602Y-65389125D01*
X119790609Y-65520814D01*
X119790602Y-65520827D01*
X119730264Y-65666498D01*
X119730261Y-65666510D01*
X119699500Y-65821153D01*
X119699500Y-65978846D01*
X119730261Y-66133489D01*
X119730264Y-66133501D01*
X119790602Y-66279172D01*
X119790609Y-66279185D01*
X119878210Y-66410288D01*
X119878213Y-66410292D01*
X119989707Y-66521786D01*
X119989711Y-66521789D01*
X120102118Y-66596898D01*
X120146923Y-66650510D01*
X120155630Y-66719835D01*
X120125475Y-66782863D01*
X120102118Y-66803102D01*
X119989711Y-66878210D01*
X119989707Y-66878213D01*
X119878213Y-66989707D01*
X119878210Y-66989711D01*
X119790609Y-67120814D01*
X119790602Y-67120827D01*
X119730264Y-67266498D01*
X119730261Y-67266510D01*
X119699500Y-67421153D01*
X119699500Y-67578846D01*
X119730261Y-67733489D01*
X119730264Y-67733501D01*
X119790602Y-67879172D01*
X119790609Y-67879185D01*
X119878210Y-68010288D01*
X119878213Y-68010292D01*
X119989707Y-68121786D01*
X119989711Y-68121789D01*
X120120814Y-68209390D01*
X120120827Y-68209397D01*
X120208230Y-68245599D01*
X120266503Y-68269737D01*
X120360995Y-68288532D01*
X120422902Y-68320915D01*
X120424482Y-68322467D01*
X122233181Y-70131166D01*
X122266666Y-70192489D01*
X122269500Y-70218847D01*
X122269500Y-70847348D01*
X122275568Y-70914132D01*
X122275571Y-70914143D01*
X122323467Y-71067848D01*
X122323468Y-71067850D01*
X122323469Y-71067852D01*
X122339270Y-71093990D01*
X122406766Y-71205641D01*
X122520608Y-71319483D01*
X122520610Y-71319484D01*
X122520612Y-71319486D01*
X122658398Y-71402781D01*
X122812113Y-71450680D01*
X122878909Y-71456750D01*
X123311090Y-71456749D01*
X123311098Y-71456749D01*
X123377882Y-71450681D01*
X123377885Y-71450680D01*
X123377887Y-71450680D01*
X123531602Y-71402781D01*
X123665852Y-71321623D01*
X123733404Y-71303788D01*
X123794147Y-71321623D01*
X123928398Y-71402781D01*
X124082113Y-71450680D01*
X124148909Y-71456750D01*
X124581090Y-71456749D01*
X124581098Y-71456749D01*
X124647882Y-71450681D01*
X124647885Y-71450680D01*
X124647887Y-71450680D01*
X124801602Y-71402781D01*
X124935852Y-71321623D01*
X125003404Y-71303788D01*
X125064147Y-71321623D01*
X125198398Y-71402781D01*
X125352113Y-71450680D01*
X125418909Y-71456750D01*
X125851090Y-71456749D01*
X125851098Y-71456749D01*
X125917882Y-71450681D01*
X125917885Y-71450680D01*
X125917887Y-71450680D01*
X126071602Y-71402781D01*
X126205852Y-71321623D01*
X126273404Y-71303788D01*
X126334147Y-71321623D01*
X126468398Y-71402781D01*
X126622113Y-71450680D01*
X126688909Y-71456750D01*
X127121090Y-71456749D01*
X127121098Y-71456749D01*
X127187882Y-71450681D01*
X127187885Y-71450680D01*
X127187887Y-71450680D01*
X127194444Y-71448636D01*
X127238609Y-71434875D01*
X127308470Y-71433723D01*
X127367862Y-71470524D01*
X127397930Y-71533593D01*
X127399500Y-71553260D01*
X127399500Y-75909764D01*
X127379815Y-75976803D01*
X127327011Y-76022558D01*
X127257853Y-76032502D01*
X127238611Y-76028150D01*
X127187795Y-76012316D01*
X127155000Y-76009335D01*
X127155000Y-77194750D01*
X127135315Y-77261789D01*
X127082511Y-77307544D01*
X127031000Y-77318750D01*
X126779000Y-77318750D01*
X126711961Y-77299065D01*
X126666206Y-77246261D01*
X126655000Y-77194750D01*
X126655000Y-76009335D01*
X126654999Y-76009335D01*
X126622205Y-76012316D01*
X126468603Y-76060179D01*
X126334633Y-76141168D01*
X126267078Y-76159004D01*
X126206335Y-76141168D01*
X126071602Y-76059719D01*
X125917887Y-76011820D01*
X125917885Y-76011819D01*
X125917883Y-76011819D01*
X125871117Y-76007569D01*
X125851091Y-76005750D01*
X125851088Y-76005750D01*
X125418901Y-76005750D01*
X125352117Y-76011818D01*
X125352106Y-76011821D01*
X125198400Y-76059717D01*
X125064150Y-76140875D01*
X124996595Y-76158711D01*
X124935850Y-76140875D01*
X124801602Y-76059719D01*
X124801596Y-76059717D01*
X124647887Y-76011820D01*
X124647885Y-76011819D01*
X124647883Y-76011819D01*
X124601117Y-76007569D01*
X124581091Y-76005750D01*
X124581088Y-76005750D01*
X124148901Y-76005750D01*
X124082117Y-76011818D01*
X124082106Y-76011821D01*
X123928400Y-76059717D01*
X123794150Y-76140875D01*
X123726595Y-76158711D01*
X123665850Y-76140875D01*
X123531602Y-76059719D01*
X123531596Y-76059717D01*
X123377887Y-76011820D01*
X123377885Y-76011819D01*
X123377883Y-76011819D01*
X123331117Y-76007569D01*
X123311091Y-76005750D01*
X123311088Y-76005750D01*
X122878901Y-76005750D01*
X122812117Y-76011818D01*
X122812106Y-76011821D01*
X122658401Y-76059717D01*
X122520608Y-76143016D01*
X122406766Y-76256858D01*
X122323469Y-76394647D01*
X122275569Y-76548366D01*
X122269500Y-76615161D01*
X122269500Y-78022348D01*
X122275568Y-78089132D01*
X122275571Y-78089143D01*
X122323467Y-78242848D01*
X122323468Y-78242850D01*
X122323469Y-78242852D01*
X122406764Y-78380638D01*
X122406766Y-78380641D01*
X122520608Y-78494483D01*
X122520610Y-78494484D01*
X122520612Y-78494486D01*
X122658398Y-78577781D01*
X122812113Y-78625680D01*
X122878909Y-78631750D01*
X123304912Y-78631749D01*
X123371951Y-78651433D01*
X123392593Y-78668068D01*
X127418593Y-82694069D01*
X127452078Y-82755392D01*
X127447094Y-82825084D01*
X127405222Y-82881017D01*
X127339758Y-82905434D01*
X127330912Y-82905750D01*
X126887498Y-82905750D01*
X126887480Y-82905751D01*
X126784703Y-82916250D01*
X126784700Y-82916251D01*
X126618168Y-82971435D01*
X126618163Y-82971437D01*
X126468842Y-83063539D01*
X126344788Y-83187593D01*
X126344783Y-83187599D01*
X126342741Y-83190911D01*
X126340747Y-83192703D01*
X126340307Y-83193261D01*
X126340211Y-83193185D01*
X126290791Y-83237633D01*
X126221828Y-83248852D01*
X126157747Y-83221005D01*
X126131668Y-83190906D01*
X126129819Y-83187909D01*
X126129816Y-83187905D01*
X126005845Y-83063934D01*
X125856624Y-82971893D01*
X125856619Y-82971891D01*
X125690197Y-82916744D01*
X125690190Y-82916743D01*
X125587486Y-82906250D01*
X125450000Y-82906250D01*
X125450000Y-85356249D01*
X125587472Y-85356249D01*
X125587486Y-85356248D01*
X125690197Y-85345755D01*
X125856619Y-85290608D01*
X125856624Y-85290606D01*
X126005845Y-85198565D01*
X126129818Y-85074592D01*
X126131665Y-85071598D01*
X126133469Y-85069974D01*
X126134298Y-85068927D01*
X126134476Y-85069068D01*
X126183610Y-85024871D01*
X126252573Y-85013646D01*
X126316656Y-85041486D01*
X126342743Y-85071591D01*
X126344788Y-85074906D01*
X126468844Y-85198962D01*
X126615597Y-85289479D01*
X126662321Y-85341425D01*
X126674500Y-85395017D01*
X126674500Y-92538330D01*
X126674499Y-92538348D01*
X126674499Y-92704054D01*
X126674498Y-92704054D01*
X126715424Y-92856789D01*
X126715425Y-92856790D01*
X126740661Y-92900499D01*
X126740662Y-92900501D01*
X126794475Y-92993709D01*
X126794481Y-92993717D01*
X126913349Y-93112585D01*
X126913355Y-93112590D01*
X127663181Y-93862416D01*
X127696666Y-93923739D01*
X127699500Y-93950097D01*
X127699500Y-94256613D01*
X127705913Y-94327192D01*
X127756522Y-94489606D01*
X127844530Y-94635188D01*
X127846661Y-94637319D01*
X127847722Y-94639262D01*
X127849157Y-94641094D01*
X127848852Y-94641332D01*
X127880146Y-94698642D01*
X127875162Y-94768334D01*
X127849110Y-94808869D01*
X127849157Y-94808906D01*
X127848767Y-94809402D01*
X127846661Y-94812681D01*
X127844531Y-94814810D01*
X127844530Y-94814811D01*
X127756522Y-94960393D01*
X127705913Y-95122807D01*
X127699500Y-95193386D01*
X127699500Y-95706613D01*
X127705913Y-95777192D01*
X127705913Y-95777194D01*
X127705914Y-95777196D01*
X127756522Y-95939606D01*
X127844527Y-96085184D01*
X127844530Y-96085188D01*
X127964811Y-96205469D01*
X127964813Y-96205470D01*
X127964815Y-96205472D01*
X128110394Y-96293478D01*
X128272804Y-96344086D01*
X128343384Y-96350500D01*
X128343387Y-96350500D01*
X128956613Y-96350500D01*
X128956616Y-96350500D01*
X129027196Y-96344086D01*
X129189606Y-96293478D01*
X129335185Y-96205472D01*
X129455472Y-96085185D01*
X129469177Y-96062515D01*
X129520700Y-96015329D01*
X129589559Y-96003489D01*
X129653889Y-96030756D01*
X129681409Y-96062515D01*
X129694927Y-96084877D01*
X129815122Y-96205072D01*
X129960604Y-96293019D01*
X129960603Y-96293019D01*
X130122894Y-96343590D01*
X130122892Y-96343590D01*
X130193418Y-96349999D01*
X130750000Y-96349999D01*
X130806581Y-96349999D01*
X130877102Y-96343591D01*
X130877107Y-96343590D01*
X131039396Y-96293018D01*
X131184877Y-96205072D01*
X131305072Y-96084877D01*
X131393019Y-95939395D01*
X131443590Y-95777106D01*
X131450000Y-95706572D01*
X131450000Y-95700000D01*
X130750000Y-95700000D01*
X130750000Y-96349999D01*
X130193418Y-96349999D01*
X130249999Y-96349998D01*
X130250000Y-96349998D01*
X130250000Y-95574000D01*
X130269685Y-95506961D01*
X130322489Y-95461206D01*
X130374000Y-95450000D01*
X130500000Y-95450000D01*
X130500000Y-95324000D01*
X130519685Y-95256961D01*
X130572489Y-95211206D01*
X130624000Y-95200000D01*
X131449999Y-95200000D01*
X131449999Y-95193417D01*
X131443591Y-95122897D01*
X131443590Y-95122892D01*
X131393018Y-94960603D01*
X131305072Y-94815122D01*
X131302984Y-94813034D01*
X131301943Y-94811128D01*
X131300446Y-94809217D01*
X131300763Y-94808968D01*
X131269499Y-94751711D01*
X131274483Y-94682019D01*
X131302993Y-94637663D01*
X131305472Y-94635185D01*
X131393478Y-94489606D01*
X131444086Y-94327196D01*
X131450500Y-94256616D01*
X131450500Y-93950096D01*
X131470185Y-93883057D01*
X131486814Y-93862419D01*
X131598644Y-93750589D01*
X131659966Y-93717106D01*
X131729658Y-93722090D01*
X131785591Y-93763962D01*
X131810008Y-93829426D01*
X131804030Y-93877275D01*
X131785001Y-93934700D01*
X131785000Y-93934704D01*
X131774500Y-94037483D01*
X131774500Y-94812501D01*
X131774501Y-94812519D01*
X131785000Y-94915296D01*
X131785001Y-94915299D01*
X131834903Y-95065892D01*
X131840186Y-95081834D01*
X131932288Y-95231156D01*
X132056344Y-95355212D01*
X132059628Y-95357237D01*
X132059653Y-95357253D01*
X132061445Y-95359246D01*
X132062011Y-95359693D01*
X132061934Y-95359789D01*
X132106379Y-95409199D01*
X132117603Y-95478161D01*
X132089761Y-95542244D01*
X132059665Y-95568326D01*
X132056660Y-95570179D01*
X132056655Y-95570183D01*
X131932684Y-95694154D01*
X131840643Y-95843375D01*
X131840641Y-95843380D01*
X131785494Y-96009802D01*
X131785493Y-96009809D01*
X131775000Y-96112513D01*
X131775000Y-96250000D01*
X134224999Y-96250000D01*
X134224999Y-96112528D01*
X134224998Y-96112513D01*
X134214505Y-96009802D01*
X134159358Y-95843380D01*
X134159356Y-95843375D01*
X134067315Y-95694154D01*
X133943344Y-95570183D01*
X133943341Y-95570181D01*
X133940339Y-95568329D01*
X133938713Y-95566521D01*
X133937677Y-95565702D01*
X133937817Y-95565524D01*
X133893617Y-95516380D01*
X133882397Y-95447417D01*
X133910243Y-95383336D01*
X133940344Y-95357254D01*
X133943656Y-95355212D01*
X134067712Y-95231156D01*
X134159814Y-95081834D01*
X134214999Y-94915297D01*
X134225500Y-94812509D01*
X134225499Y-94581201D01*
X134245183Y-94514163D01*
X134297987Y-94468408D01*
X134367146Y-94458464D01*
X134430701Y-94487489D01*
X134437180Y-94493521D01*
X136308033Y-96364374D01*
X136308043Y-96364385D01*
X136312373Y-96368715D01*
X136312374Y-96368716D01*
X136424178Y-96480520D01*
X136503342Y-96526225D01*
X136561109Y-96559577D01*
X136584111Y-96565740D01*
X136595051Y-96571133D01*
X136612147Y-96586856D01*
X136631978Y-96598943D01*
X136637379Y-96610062D01*
X136646478Y-96618430D01*
X136652359Y-96640897D01*
X136662509Y-96661790D01*
X136661041Y-96674063D01*
X136664172Y-96686022D01*
X136656972Y-96708104D01*
X136654215Y-96731166D01*
X136643329Y-96751244D01*
X136613367Y-96796085D01*
X136613366Y-96796087D01*
X136537950Y-96978160D01*
X136537947Y-96978170D01*
X136499500Y-97171456D01*
X136499500Y-97171459D01*
X136499500Y-97368541D01*
X136499500Y-97368543D01*
X136499499Y-97368543D01*
X136537947Y-97561829D01*
X136537950Y-97561839D01*
X136553550Y-97599500D01*
X136613368Y-97743914D01*
X136653885Y-97804552D01*
X136675271Y-97836559D01*
X136696148Y-97903236D01*
X136677663Y-97970616D01*
X136675271Y-97974339D01*
X136613809Y-98066325D01*
X136538430Y-98248306D01*
X136538427Y-98248318D01*
X136500000Y-98441504D01*
X136500000Y-98638495D01*
X136538427Y-98831681D01*
X136538430Y-98831693D01*
X136613808Y-99013673D01*
X136613809Y-99013675D01*
X136637426Y-99049019D01*
X137175000Y-98511445D01*
X137175000Y-98582787D01*
X137197149Y-98665445D01*
X137239936Y-98739554D01*
X137300446Y-98800064D01*
X137374555Y-98842851D01*
X137457213Y-98865000D01*
X137542787Y-98865000D01*
X137625445Y-98842851D01*
X137699554Y-98800064D01*
X137760064Y-98739554D01*
X137802851Y-98665445D01*
X137825000Y-98582787D01*
X137825000Y-98511447D01*
X138362572Y-99049020D01*
X138362573Y-99049019D01*
X138386187Y-99013680D01*
X138386190Y-99013676D01*
X138461569Y-98831693D01*
X138461572Y-98831681D01*
X138499999Y-98638495D01*
X138500000Y-98638492D01*
X138500000Y-98441508D01*
X138499999Y-98441504D01*
X138461572Y-98248318D01*
X138461569Y-98248306D01*
X138386192Y-98066328D01*
X138386188Y-98066321D01*
X138324728Y-97974341D01*
X138303850Y-97907663D01*
X138322334Y-97840283D01*
X138324704Y-97836595D01*
X138386632Y-97743914D01*
X138462051Y-97561835D01*
X138485399Y-97444459D01*
X138500500Y-97368543D01*
X138500500Y-97170096D01*
X138520185Y-97103057D01*
X138536819Y-97082415D01*
X139414162Y-96205072D01*
X140358506Y-95260728D01*
X140358511Y-95260724D01*
X140368714Y-95250520D01*
X140368716Y-95250520D01*
X140480520Y-95138716D01*
X140545885Y-95025500D01*
X140559577Y-95001785D01*
X140600501Y-94849057D01*
X140600501Y-94690943D01*
X140600501Y-94683348D01*
X140600500Y-94683330D01*
X140600500Y-93245908D01*
X140620185Y-93178869D01*
X140664271Y-93140363D01*
X140663187Y-93138605D01*
X140669332Y-93134814D01*
X140669334Y-93134814D01*
X140818656Y-93042712D01*
X140942712Y-92918656D01*
X141034814Y-92769334D01*
X141089999Y-92602797D01*
X141100500Y-92500009D01*
X141100499Y-91499992D01*
X141089999Y-91397203D01*
X141034814Y-91230666D01*
X140942712Y-91081344D01*
X140818656Y-90957288D01*
X140700368Y-90884328D01*
X140669336Y-90865187D01*
X140669327Y-90865183D01*
X140640860Y-90855750D01*
X140583416Y-90815977D01*
X140562891Y-90775638D01*
X140562686Y-90775723D01*
X140561599Y-90773098D01*
X140560091Y-90770135D01*
X140559577Y-90768216D01*
X140539988Y-90734286D01*
X140480524Y-90631290D01*
X140480518Y-90631282D01*
X138136819Y-88287583D01*
X138103334Y-88226260D01*
X138100500Y-88199902D01*
X138100500Y-84920945D01*
X138100500Y-84920943D01*
X138059577Y-84768216D01*
X138059577Y-84768215D01*
X138044902Y-84742799D01*
X138024858Y-84708080D01*
X138024858Y-84708079D01*
X137980524Y-84631290D01*
X137980518Y-84631282D01*
X137799967Y-84450731D01*
X137799966Y-84450730D01*
X137703852Y-84395239D01*
X137663035Y-84371673D01*
X137510307Y-84330749D01*
X137352193Y-84330749D01*
X137344597Y-84330749D01*
X137344581Y-84330750D01*
X136537597Y-84330750D01*
X136508156Y-84322105D01*
X136478170Y-84315582D01*
X136473154Y-84311827D01*
X136470558Y-84311065D01*
X136449916Y-84294431D01*
X136336915Y-84181430D01*
X136303430Y-84120107D01*
X136308414Y-84050415D01*
X136336910Y-84006074D01*
X136449918Y-83893065D01*
X136511239Y-83859583D01*
X136537597Y-83856749D01*
X137087502Y-83856749D01*
X137087508Y-83856749D01*
X137190297Y-83846249D01*
X137356834Y-83791064D01*
X137506156Y-83698962D01*
X137630212Y-83574906D01*
X137632252Y-83571597D01*
X137634245Y-83569805D01*
X137634693Y-83569239D01*
X137634789Y-83569315D01*
X137684194Y-83524873D01*
X137753156Y-83513645D01*
X137817240Y-83541484D01*
X137843329Y-83571589D01*
X137845181Y-83574591D01*
X137845183Y-83574594D01*
X137969154Y-83698565D01*
X138118375Y-83790606D01*
X138118380Y-83790608D01*
X138284802Y-83845755D01*
X138284809Y-83845756D01*
X138387519Y-83856249D01*
X138524999Y-83856249D01*
X139025000Y-83856249D01*
X139162472Y-83856249D01*
X139162486Y-83856248D01*
X139265197Y-83845755D01*
X139431619Y-83790608D01*
X139431624Y-83790606D01*
X139580845Y-83698565D01*
X139704815Y-83574595D01*
X139796856Y-83425374D01*
X139796858Y-83425369D01*
X139852005Y-83258947D01*
X139852006Y-83258940D01*
X139862499Y-83156236D01*
X139862500Y-83156223D01*
X139862500Y-82881250D01*
X139025000Y-82881250D01*
X139025000Y-83856249D01*
X138524999Y-83856249D01*
X138525000Y-83856248D01*
X138525000Y-82381250D01*
X139025000Y-82381250D01*
X139862499Y-82381250D01*
X139862499Y-82106278D01*
X139862498Y-82106263D01*
X139852005Y-82003552D01*
X139796858Y-81837130D01*
X139796856Y-81837125D01*
X139704815Y-81687904D01*
X139580845Y-81563934D01*
X139431624Y-81471893D01*
X139431619Y-81471891D01*
X139265197Y-81416744D01*
X139265190Y-81416743D01*
X139162486Y-81406250D01*
X139025000Y-81406250D01*
X139025000Y-82381250D01*
X138525000Y-82381250D01*
X138525000Y-81406250D01*
X138387527Y-81406250D01*
X138387512Y-81406251D01*
X138284802Y-81416744D01*
X138118380Y-81471891D01*
X138118375Y-81471893D01*
X137969154Y-81563934D01*
X137845183Y-81687905D01*
X137845179Y-81687910D01*
X137843326Y-81690915D01*
X137841518Y-81692540D01*
X137840702Y-81693573D01*
X137840525Y-81693433D01*
X137791374Y-81737635D01*
X137722411Y-81748851D01*
X137658331Y-81721002D01*
X137632253Y-81690903D01*
X137632098Y-81690652D01*
X137630212Y-81687594D01*
X137506156Y-81563538D01*
X137426526Y-81514422D01*
X137379803Y-81462475D01*
X137368580Y-81393512D01*
X137386087Y-81343785D01*
X137397314Y-81325584D01*
X137452499Y-81159047D01*
X137463000Y-81056259D01*
X137462999Y-80281242D01*
X137452499Y-80178453D01*
X137397314Y-80011916D01*
X137305212Y-79862594D01*
X137181156Y-79738538D01*
X137177842Y-79736493D01*
X137176046Y-79734498D01*
X137175489Y-79734057D01*
X137175564Y-79733961D01*
X137131118Y-79684547D01*
X137119897Y-79615584D01*
X137147740Y-79551502D01*
X137177848Y-79525415D01*
X137180842Y-79523568D01*
X137304815Y-79399595D01*
X137396856Y-79250374D01*
X137396858Y-79250369D01*
X137452005Y-79083947D01*
X137452006Y-79083940D01*
X137462499Y-78981236D01*
X137462500Y-78981223D01*
X137462500Y-78843750D01*
X136361500Y-78843750D01*
X136294461Y-78824065D01*
X136248706Y-78771261D01*
X136237500Y-78719750D01*
X136237500Y-78593750D01*
X136111500Y-78593750D01*
X136044461Y-78574065D01*
X135998706Y-78521261D01*
X135987500Y-78469750D01*
X135987500Y-78343750D01*
X136487500Y-78343750D01*
X137462499Y-78343750D01*
X137462499Y-78206278D01*
X137462498Y-78206263D01*
X137452005Y-78103552D01*
X137396858Y-77937130D01*
X137396856Y-77937125D01*
X137304815Y-77787904D01*
X137180845Y-77663934D01*
X137031624Y-77571893D01*
X137031619Y-77571891D01*
X136865197Y-77516744D01*
X136865190Y-77516743D01*
X136762486Y-77506250D01*
X136487500Y-77506250D01*
X136487500Y-78343750D01*
X135987500Y-78343750D01*
X135987500Y-77506250D01*
X135712529Y-77506250D01*
X135712512Y-77506251D01*
X135609802Y-77516744D01*
X135443380Y-77571891D01*
X135443375Y-77571893D01*
X135294154Y-77663934D01*
X135170184Y-77787904D01*
X135078143Y-77937125D01*
X135078141Y-77937130D01*
X135042206Y-78045577D01*
X135002433Y-78103022D01*
X134937918Y-78129845D01*
X134869142Y-78117530D01*
X134817942Y-78069987D01*
X134800500Y-78006573D01*
X134800500Y-76931347D01*
X134820185Y-76864308D01*
X134836819Y-76843666D01*
X135812416Y-75868069D01*
X135873739Y-75834584D01*
X135900097Y-75831750D01*
X141361991Y-75831750D01*
X141362007Y-75831751D01*
X141369603Y-75831751D01*
X141527714Y-75831751D01*
X141527717Y-75831751D01*
X141680445Y-75790827D01*
X141730564Y-75761889D01*
X141817376Y-75711770D01*
X141929180Y-75599966D01*
X141929180Y-75599964D01*
X141939388Y-75589757D01*
X141939390Y-75589754D01*
X142468713Y-75060431D01*
X142468716Y-75060430D01*
X142580520Y-74948626D01*
X142612200Y-74893751D01*
X142662766Y-74845535D01*
X142719588Y-74831750D01*
X143513331Y-74831750D01*
X143513347Y-74831751D01*
X143520943Y-74831751D01*
X143679054Y-74831751D01*
X143679057Y-74831751D01*
X143831785Y-74790827D01*
X143901233Y-74750731D01*
X143968716Y-74711770D01*
X144080520Y-74599966D01*
X144080521Y-74599964D01*
X144580520Y-74099966D01*
X144659577Y-73963034D01*
X144700501Y-73810307D01*
X144700501Y-73652192D01*
X144700501Y-73644597D01*
X144700500Y-73644579D01*
X144700500Y-71857810D01*
X144700501Y-71857797D01*
X144700501Y-71689694D01*
X144689583Y-71648948D01*
X144659577Y-71536966D01*
X144609761Y-71450681D01*
X144580524Y-71400040D01*
X144580518Y-71400032D01*
X143599318Y-70418832D01*
X143565833Y-70357509D01*
X143562999Y-70331151D01*
X143562999Y-69631248D01*
X143562998Y-69631231D01*
X143552499Y-69528453D01*
X143552498Y-69528450D01*
X143536125Y-69479040D01*
X143497314Y-69361916D01*
X143405212Y-69212594D01*
X143281156Y-69088538D01*
X143131834Y-68996436D01*
X142965297Y-68941251D01*
X142965295Y-68941250D01*
X142862516Y-68930750D01*
X142088000Y-68930750D01*
X142020961Y-68911065D01*
X141975206Y-68858261D01*
X141964000Y-68806750D01*
X141964000Y-68546902D01*
X141983685Y-68479863D01*
X142036489Y-68434108D01*
X142075401Y-68423544D01*
X142102696Y-68420756D01*
X142269119Y-68365608D01*
X142269124Y-68365606D01*
X142418345Y-68273565D01*
X142542315Y-68149595D01*
X142634356Y-68000374D01*
X142634358Y-68000369D01*
X142689505Y-67833947D01*
X142689506Y-67833940D01*
X142699999Y-67731236D01*
X142700000Y-67731223D01*
X142700000Y-67481250D01*
X141724000Y-67481250D01*
X141656961Y-67461565D01*
X141611206Y-67408761D01*
X141600000Y-67357250D01*
X141600000Y-67231250D01*
X141474000Y-67231250D01*
X141406961Y-67211565D01*
X141361206Y-67158761D01*
X141350000Y-67107250D01*
X141350000Y-66981250D01*
X141850000Y-66981250D01*
X142699999Y-66981250D01*
X142699999Y-66731278D01*
X142699998Y-66731263D01*
X142689505Y-66628552D01*
X142634358Y-66462130D01*
X142634356Y-66462125D01*
X142542315Y-66312904D01*
X142418345Y-66188934D01*
X142269124Y-66096893D01*
X142269119Y-66096891D01*
X142102697Y-66041744D01*
X142102690Y-66041743D01*
X141999986Y-66031250D01*
X141850000Y-66031250D01*
X141850000Y-66981250D01*
X141350000Y-66981250D01*
X141350000Y-66031250D01*
X141200027Y-66031250D01*
X141200012Y-66031251D01*
X141097302Y-66041744D01*
X140981066Y-66080261D01*
X140965499Y-66080796D01*
X140950908Y-66086239D01*
X140931297Y-66081972D01*
X140911237Y-66082663D01*
X140896911Y-66074492D01*
X140882635Y-66071387D01*
X140854381Y-66050236D01*
X140737515Y-65933370D01*
X140704030Y-65872047D01*
X140709014Y-65802355D01*
X140750886Y-65746422D01*
X140816350Y-65722005D01*
X140837793Y-65722330D01*
X140929991Y-65731750D01*
X142710008Y-65731749D01*
X142812797Y-65721249D01*
X142979334Y-65666064D01*
X143128656Y-65573962D01*
X143252712Y-65449906D01*
X143344814Y-65300584D01*
X143399999Y-65134047D01*
X143410500Y-65031259D01*
X143410499Y-63431242D01*
X143408683Y-63413469D01*
X143399999Y-63328453D01*
X143399998Y-63328450D01*
X143381942Y-63273960D01*
X143344814Y-63161916D01*
X143252712Y-63012594D01*
X143128656Y-62888538D01*
X143003052Y-62811065D01*
X142979336Y-62796437D01*
X142979331Y-62796435D01*
X142977862Y-62795948D01*
X142812797Y-62741251D01*
X142812795Y-62741250D01*
X142710016Y-62730750D01*
X142710009Y-62730750D01*
X142544500Y-62730750D01*
X142477461Y-62711065D01*
X142431706Y-62658261D01*
X142420500Y-62606750D01*
X142420500Y-61925749D01*
X142440185Y-61858710D01*
X142492989Y-61812955D01*
X142544500Y-61801749D01*
X142710002Y-61801749D01*
X142710008Y-61801749D01*
X142812797Y-61791249D01*
X142979334Y-61736064D01*
X143128656Y-61643962D01*
X143252712Y-61519906D01*
X143344814Y-61370584D01*
X143399999Y-61204047D01*
X143410500Y-61101259D01*
X143410499Y-59501242D01*
X143399999Y-59398453D01*
X143344814Y-59231916D01*
X143252712Y-59082594D01*
X143128656Y-58958538D01*
X142979334Y-58866436D01*
X142812797Y-58811251D01*
X142812795Y-58811250D01*
X142710010Y-58800750D01*
X140929998Y-58800750D01*
X140929981Y-58800751D01*
X140827203Y-58811250D01*
X140827200Y-58811251D01*
X140660668Y-58866435D01*
X140660663Y-58866437D01*
X140511342Y-58958539D01*
X140387289Y-59082592D01*
X140295187Y-59231913D01*
X140295185Y-59231918D01*
X140282213Y-59271065D01*
X140240001Y-59398453D01*
X140240001Y-59398454D01*
X140240000Y-59398454D01*
X140229500Y-59501233D01*
X140229500Y-59576750D01*
X140209815Y-59643789D01*
X140157011Y-59689544D01*
X140105500Y-59700750D01*
X133314499Y-59700750D01*
X133247460Y-59681065D01*
X133201705Y-59628261D01*
X133190499Y-59576750D01*
X133190499Y-59501248D01*
X133190498Y-59501231D01*
X133179999Y-59398453D01*
X133179998Y-59398450D01*
X133169325Y-59366241D01*
X133124814Y-59231916D01*
X133032712Y-59082594D01*
X132908656Y-58958538D01*
X132759334Y-58866436D01*
X132592797Y-58811251D01*
X132592795Y-58811250D01*
X132490010Y-58800750D01*
X130709998Y-58800750D01*
X130709981Y-58800751D01*
X130607203Y-58811250D01*
X130607200Y-58811251D01*
X130440668Y-58866435D01*
X130440663Y-58866437D01*
X130291342Y-58958539D01*
X130167289Y-59082592D01*
X130167288Y-59082594D01*
X130083609Y-59218261D01*
X130075229Y-59231847D01*
X130067641Y-59238671D01*
X130063403Y-59247953D01*
X130042103Y-59261641D01*
X130023281Y-59278571D01*
X130011645Y-59281215D01*
X130004625Y-59285727D01*
X129969690Y-59290750D01*
X129915649Y-59290750D01*
X129848610Y-59271065D01*
X129802855Y-59218261D01*
X129797943Y-59205754D01*
X129764079Y-59103559D01*
X129761878Y-59096916D01*
X129669776Y-58947594D01*
X129545720Y-58823538D01*
X129396398Y-58731436D01*
X129229861Y-58676251D01*
X129229859Y-58676250D01*
X129127074Y-58665750D01*
X128352062Y-58665750D01*
X128352044Y-58665751D01*
X128249267Y-58676250D01*
X128249264Y-58676251D01*
X128082732Y-58731435D01*
X128082727Y-58731437D01*
X127933406Y-58823539D01*
X127809352Y-58947593D01*
X127809347Y-58947599D01*
X127807305Y-58950911D01*
X127805311Y-58952703D01*
X127804871Y-58953261D01*
X127804775Y-58953185D01*
X127755355Y-58997633D01*
X127686392Y-59008852D01*
X127622311Y-58981005D01*
X127596232Y-58950906D01*
X127594383Y-58947909D01*
X127594380Y-58947905D01*
X127470409Y-58823934D01*
X127321188Y-58731893D01*
X127321183Y-58731891D01*
X127154761Y-58676744D01*
X127154754Y-58676743D01*
X127052050Y-58666250D01*
X126914564Y-58666250D01*
X126914564Y-61122250D01*
X126894879Y-61189289D01*
X126842075Y-61235044D01*
X126790564Y-61246250D01*
X126682064Y-61246250D01*
X126682064Y-63431249D01*
X126832036Y-63431249D01*
X126832050Y-63431248D01*
X126934761Y-63420755D01*
X127101183Y-63365608D01*
X127101188Y-63365606D01*
X127250406Y-63273567D01*
X127344028Y-63179945D01*
X127405351Y-63146460D01*
X127475043Y-63151444D01*
X127519391Y-63179945D01*
X127613408Y-63273962D01*
X127762730Y-63366064D01*
X127929267Y-63421249D01*
X128032055Y-63431750D01*
X128832072Y-63431749D01*
X128832080Y-63431748D01*
X128832083Y-63431748D01*
X128888366Y-63425998D01*
X128934861Y-63421249D01*
X129101398Y-63366064D01*
X129250720Y-63273962D01*
X129374776Y-63149906D01*
X129404853Y-63101142D01*
X129456801Y-63054418D01*
X129525763Y-63043195D01*
X129589845Y-63071038D01*
X129598073Y-63078558D01*
X129973181Y-63453666D01*
X130006666Y-63514989D01*
X130009500Y-63541347D01*
X130009501Y-64957750D01*
X129989816Y-65024789D01*
X129937013Y-65070544D01*
X129885501Y-65081750D01*
X124951097Y-65081750D01*
X124884058Y-65062065D01*
X124863416Y-65045431D01*
X123796266Y-63978281D01*
X123762781Y-63916958D01*
X123760329Y-63880876D01*
X123763000Y-63846944D01*
X123763000Y-63415556D01*
X123760098Y-63378681D01*
X123757771Y-63370673D01*
X123714245Y-63220856D01*
X123714245Y-63220855D01*
X123714244Y-63220854D01*
X123714244Y-63220852D01*
X123713074Y-63218874D01*
X123712630Y-63217124D01*
X123711147Y-63213696D01*
X123711700Y-63213456D01*
X123695896Y-63151151D01*
X123711253Y-63098853D01*
X123710684Y-63098607D01*
X123712682Y-63093988D01*
X123713081Y-63092632D01*
X123713781Y-63091447D01*
X123759600Y-62933736D01*
X123759795Y-62931251D01*
X123759795Y-62931250D01*
X123494315Y-62931250D01*
X123431194Y-62913982D01*
X123372896Y-62879505D01*
X123372893Y-62879504D01*
X123215073Y-62833652D01*
X123215067Y-62833651D01*
X123178201Y-62830750D01*
X123178194Y-62830750D01*
X122724000Y-62830750D01*
X122715314Y-62828199D01*
X122706353Y-62829488D01*
X122682312Y-62818509D01*
X122656961Y-62811065D01*
X122651033Y-62804224D01*
X122642797Y-62800463D01*
X122628507Y-62778228D01*
X122611206Y-62758261D01*
X122608918Y-62747746D01*
X122605023Y-62741685D01*
X122603521Y-62731236D01*
X125332065Y-62731236D01*
X125342558Y-62833947D01*
X125397705Y-63000369D01*
X125397707Y-63000374D01*
X125489748Y-63149595D01*
X125613718Y-63273565D01*
X125762939Y-63365606D01*
X125762944Y-63365608D01*
X125929366Y-63420755D01*
X125929373Y-63420756D01*
X126032083Y-63431249D01*
X126182063Y-63431249D01*
X126182064Y-63431248D01*
X126182064Y-62481250D01*
X125332065Y-62481250D01*
X125332065Y-62731236D01*
X122603521Y-62731236D01*
X122600000Y-62706750D01*
X122600000Y-62655750D01*
X122619685Y-62588711D01*
X122672489Y-62542956D01*
X122724000Y-62531750D01*
X123178186Y-62531750D01*
X123178194Y-62531750D01*
X123215069Y-62528848D01*
X123215071Y-62528847D01*
X123215073Y-62528847D01*
X123274502Y-62511581D01*
X123372898Y-62482994D01*
X123431194Y-62448518D01*
X123494315Y-62431250D01*
X123755425Y-62431250D01*
X123700653Y-62241056D01*
X123700755Y-62221295D01*
X123695895Y-62202138D01*
X123700944Y-62184942D01*
X123701016Y-62171187D01*
X123708252Y-62160054D01*
X123711509Y-62148964D01*
X123711146Y-62148807D01*
X123712420Y-62145862D01*
X123713079Y-62143619D01*
X123714242Y-62141651D01*
X123714244Y-62141648D01*
X123760098Y-61983819D01*
X123763000Y-61946944D01*
X123763000Y-61731263D01*
X125332064Y-61731263D01*
X125332064Y-61981250D01*
X126182064Y-61981250D01*
X126182064Y-61025250D01*
X126201749Y-60958211D01*
X126254553Y-60912456D01*
X126306064Y-60901250D01*
X126414564Y-60901250D01*
X126414564Y-60141250D01*
X125577065Y-60141250D01*
X125577065Y-60416236D01*
X125587558Y-60518947D01*
X125642705Y-60685369D01*
X125642707Y-60685374D01*
X125734748Y-60834595D01*
X125797375Y-60897222D01*
X125830860Y-60958545D01*
X125825876Y-61028237D01*
X125784004Y-61084170D01*
X125769088Y-61093100D01*
X125769089Y-61093101D01*
X125613718Y-61188934D01*
X125489748Y-61312904D01*
X125397707Y-61462125D01*
X125397705Y-61462130D01*
X125342558Y-61628552D01*
X125342557Y-61628559D01*
X125332064Y-61731263D01*
X123763000Y-61731263D01*
X123763000Y-61515556D01*
X123760098Y-61478681D01*
X123755289Y-61462130D01*
X123714245Y-61320856D01*
X123714244Y-61320853D01*
X123714244Y-61320852D01*
X123630581Y-61179385D01*
X123630579Y-61179383D01*
X123630576Y-61179379D01*
X123514370Y-61063173D01*
X123514362Y-61063167D01*
X123416784Y-61005460D01*
X123369101Y-60954391D01*
X123356597Y-60885649D01*
X123383242Y-60821060D01*
X123402995Y-60801461D01*
X123406147Y-60798967D01*
X123406156Y-60798962D01*
X123530212Y-60674906D01*
X123622314Y-60525584D01*
X123677499Y-60359047D01*
X123688000Y-60256259D01*
X123687999Y-59366263D01*
X125577064Y-59366263D01*
X125577064Y-59641250D01*
X126414564Y-59641250D01*
X126414564Y-58666250D01*
X126277091Y-58666250D01*
X126277076Y-58666251D01*
X126174366Y-58676744D01*
X126007944Y-58731891D01*
X126007939Y-58731893D01*
X125858718Y-58823934D01*
X125734748Y-58947904D01*
X125642707Y-59097125D01*
X125642705Y-59097130D01*
X125587558Y-59263552D01*
X125587557Y-59263559D01*
X125577064Y-59366263D01*
X123687999Y-59366263D01*
X123687999Y-59206242D01*
X123677499Y-59103453D01*
X123622314Y-58936916D01*
X123530212Y-58787594D01*
X123406156Y-58663538D01*
X123256834Y-58571436D01*
X123090297Y-58516251D01*
X123090295Y-58516250D01*
X122987510Y-58505750D01*
X122212498Y-58505750D01*
X122212480Y-58505751D01*
X122109703Y-58516250D01*
X122109700Y-58516251D01*
X121943168Y-58571435D01*
X121943163Y-58571437D01*
X121793842Y-58663539D01*
X121669788Y-58787593D01*
X121669783Y-58787599D01*
X121667741Y-58790911D01*
X121665747Y-58792703D01*
X121665307Y-58793261D01*
X121665211Y-58793185D01*
X121615791Y-58837633D01*
X121546828Y-58848852D01*
X121482747Y-58821005D01*
X121456668Y-58790906D01*
X121454819Y-58787909D01*
X121454816Y-58787905D01*
X121330845Y-58663934D01*
X121181624Y-58571893D01*
X121181619Y-58571891D01*
X121015197Y-58516744D01*
X121015190Y-58516743D01*
X120912486Y-58506250D01*
X120775000Y-58506250D01*
X120775000Y-59607250D01*
X120755315Y-59674289D01*
X120702511Y-59720044D01*
X120651000Y-59731250D01*
X120525000Y-59731250D01*
X120525000Y-59857250D01*
X120505315Y-59924289D01*
X120452511Y-59970044D01*
X120401000Y-59981250D01*
X119437501Y-59981250D01*
X119437501Y-60256236D01*
X119447994Y-60358947D01*
X119488507Y-60481205D01*
X119489350Y-60505731D01*
X119493647Y-60509203D01*
X119500039Y-60520340D01*
X119595184Y-60674595D01*
X119673492Y-60752903D01*
X119689357Y-60781958D01*
X119706118Y-60810545D01*
X119706037Y-60812505D01*
X119706977Y-60814226D01*
X119704615Y-60847249D01*
X119703260Y-60880356D01*
X119702132Y-60881961D01*
X119701993Y-60883918D01*
X119682140Y-60910437D01*
X119663112Y-60937540D01*
X119661052Y-60938606D01*
X119660121Y-60939851D01*
X119632665Y-60955391D01*
X119626634Y-60957852D01*
X119552102Y-60979506D01*
X119504285Y-61007784D01*
X119495853Y-61011226D01*
X119469793Y-61013890D01*
X119444395Y-61020334D01*
X119435584Y-61017387D01*
X119426346Y-61018332D01*
X119402979Y-61006482D01*
X119378133Y-60998173D01*
X119372315Y-60990933D01*
X119364031Y-60986732D01*
X119350778Y-60964128D01*
X119334370Y-60943707D01*
X119332105Y-60932280D01*
X119328692Y-60926458D01*
X119329078Y-60917007D01*
X119324999Y-60896419D01*
X119324999Y-60843778D01*
X119324998Y-60843763D01*
X119314506Y-60741054D01*
X119273992Y-60618795D01*
X119273148Y-60594266D01*
X119268852Y-60590795D01*
X119262469Y-60579673D01*
X119167315Y-60425404D01*
X119043345Y-60301434D01*
X118894124Y-60209393D01*
X118894119Y-60209391D01*
X118727697Y-60154244D01*
X118727690Y-60154243D01*
X118624986Y-60143750D01*
X118350000Y-60143750D01*
X118350000Y-61107250D01*
X118330315Y-61174289D01*
X118277511Y-61220044D01*
X118226000Y-61231250D01*
X118100000Y-61231250D01*
X118100000Y-61357250D01*
X118080315Y-61424289D01*
X118027511Y-61470044D01*
X117976000Y-61481250D01*
X116875001Y-61481250D01*
X116875001Y-61618736D01*
X116885494Y-61721447D01*
X116940641Y-61887869D01*
X116940643Y-61887874D01*
X117032684Y-62037095D01*
X117156655Y-62161066D01*
X117156659Y-62161069D01*
X117159656Y-62162918D01*
X117161279Y-62164722D01*
X117162323Y-62165548D01*
X117162181Y-62165726D01*
X117206381Y-62214866D01*
X117217602Y-62283829D01*
X117189759Y-62347911D01*
X117159661Y-62373991D01*
X117156349Y-62376033D01*
X117156343Y-62376038D01*
X117032289Y-62500092D01*
X116940187Y-62649413D01*
X116940185Y-62649418D01*
X116919259Y-62712570D01*
X116885001Y-62815953D01*
X116885001Y-62815954D01*
X116885000Y-62815954D01*
X116874500Y-62918733D01*
X116000500Y-62918733D01*
X116000500Y-60843763D01*
X116875000Y-60843763D01*
X116875000Y-60981250D01*
X117850000Y-60981250D01*
X117850000Y-60143750D01*
X117575029Y-60143750D01*
X117575012Y-60143751D01*
X117472302Y-60154244D01*
X117305880Y-60209391D01*
X117305875Y-60209393D01*
X117156654Y-60301434D01*
X117032684Y-60425404D01*
X116940643Y-60574625D01*
X116940641Y-60574630D01*
X116885494Y-60741052D01*
X116885493Y-60741059D01*
X116875000Y-60843763D01*
X116000500Y-60843763D01*
X116000500Y-59206263D01*
X119437500Y-59206263D01*
X119437500Y-59481250D01*
X120275000Y-59481250D01*
X120275000Y-58506250D01*
X120137527Y-58506250D01*
X120137512Y-58506251D01*
X120034802Y-58516744D01*
X119868380Y-58571891D01*
X119868375Y-58571893D01*
X119719154Y-58663934D01*
X119595184Y-58787904D01*
X119503143Y-58937125D01*
X119503141Y-58937130D01*
X119447994Y-59103552D01*
X119447993Y-59103559D01*
X119437500Y-59206263D01*
X116000500Y-59206263D01*
X116000500Y-55124500D01*
X116020185Y-55057461D01*
X116072989Y-55011706D01*
X116124500Y-55000500D01*
X145875500Y-55000500D01*
X145942539Y-55020185D01*
G37*
%TD.AperFunction*%
%TD*%
M02*
