%TF.GenerationSoftware,KiCad,Pcbnew,9.0.7*%
%TF.CreationDate,2026-03-01T17:50:22+05:30*%
%TF.ProjectId,HID,4849442e-6b69-4636-9164-5f7063625858,rev?*%
%TF.SameCoordinates,Original*%
%TF.FileFunction,Copper,L2,Bot*%
%TF.FilePolarity,Positive*%
%FSLAX46Y46*%
G04 Gerber Fmt 4.6, Leading zero omitted, Abs format (unit mm)*
G04 Created by KiCad (PCBNEW 9.0.7) date 2026-03-01 17:50:22*
%MOMM*%
%LPD*%
G01*
G04 APERTURE LIST*
%TA.AperFunction,ComponentPad*%
%ADD10C,1.000000*%
%TD*%
%TA.AperFunction,ComponentPad*%
%ADD11R,1.000000X1.000000*%
%TD*%
%TA.AperFunction,ViaPad*%
%ADD12C,0.600000*%
%TD*%
%TA.AperFunction,Conductor*%
%ADD13C,0.200000*%
%TD*%
G04 APERTURE END LIST*
D10*
%TO.P,J2,4,Pin_4*%
%TO.N,GND*%
X137500000Y-98540000D03*
%TO.P,J2,3,Pin_3*%
%TO.N,+3.3V*%
X137500000Y-97270000D03*
%TO.P,J2,2,Pin_2*%
%TO.N,Net-(J2-Pin_2)*%
X137500000Y-96000000D03*
D11*
%TO.P,J2,1,Pin_1*%
%TO.N,Net-(J2-Pin_1)*%
X137500000Y-94730000D03*
%TD*%
D12*
%TO.N,GND*%
X125500000Y-62231250D03*
X126581657Y-62081657D03*
X139500000Y-82500000D03*
%TO.N,Net-(U3-EN)*%
X139110000Y-64806250D03*
X134310000Y-64806250D03*
%TO.N,Net-(U1-VREG_VOUT)*%
X133207455Y-85391023D03*
X132800000Y-82500000D03*
%TO.N,+3.3V*%
X134800000Y-80500000D03*
X133200000Y-80500000D03*
X120500000Y-65900000D03*
X120500000Y-67500000D03*
%TO.N,GND*%
X134000000Y-85500000D03*
X138100000Y-85500000D03*
%TD*%
D13*
%TO.N,Net-(U3-EN)*%
X139000000Y-66000000D02*
X139000000Y-64916250D01*
X134500000Y-66000000D02*
X139000000Y-66000000D01*
X134310000Y-64806250D02*
X134310000Y-65810000D01*
X134310000Y-65810000D02*
X134500000Y-66000000D01*
X139000000Y-64916250D02*
X139110000Y-64806250D01*
%TO.N,Net-(U1-VREG_VOUT)*%
X132800000Y-84983568D02*
X133207455Y-85391023D01*
X132800000Y-82500000D02*
X132800000Y-84983568D01*
%TO.N,+3.3V*%
X133200000Y-80500000D02*
X134800000Y-80500000D01*
X120500000Y-65900000D02*
X120500000Y-67500000D01*
%TO.N,GND*%
X134000000Y-85500000D02*
X138100000Y-85500000D01*
%TD*%
%TA.AperFunction,Conductor*%
%TO.N,GND*%
G36*
X145942539Y-55020185D02*
G01*
X145988294Y-55072989D01*
X145999500Y-55124500D01*
X145999500Y-76723739D01*
X145979815Y-76790778D01*
X145958911Y-76815492D01*
X140713010Y-81584493D01*
X140703144Y-81593461D01*
X140692686Y-81599500D01*
X140654522Y-81637662D01*
X140652334Y-81639652D01*
X140614569Y-81673984D01*
X140610982Y-81678224D01*
X140602913Y-81688237D01*
X140599495Y-81692692D01*
X140573976Y-81736889D01*
X140573977Y-81736890D01*
X140572493Y-81739458D01*
X140543325Y-81784849D01*
X140539647Y-81796351D01*
X140533612Y-81806805D01*
X140533608Y-81806812D01*
X140533608Y-81806814D01*
X140519634Y-81858963D01*
X140503201Y-81910376D01*
X140502626Y-81922438D01*
X140499500Y-81934105D01*
X140499500Y-81985130D01*
X140499360Y-81991027D01*
X140496932Y-82042011D01*
X140497404Y-82047667D01*
X140499500Y-82067146D01*
X140499500Y-87565891D01*
X140533608Y-87693187D01*
X140566554Y-87750250D01*
X140599500Y-87807314D01*
X140599502Y-87807316D01*
X143463181Y-90670995D01*
X143496666Y-90732318D01*
X143499500Y-90758676D01*
X143499500Y-96216620D01*
X143479815Y-96283659D01*
X143457155Y-96309939D01*
X139847009Y-99468819D01*
X139783594Y-99498151D01*
X139765354Y-99499500D01*
X138136286Y-99499500D01*
X138069247Y-99479815D01*
X138023492Y-99427011D01*
X138021499Y-99415051D01*
X137500001Y-98893553D01*
X137500000Y-98893553D01*
X136977031Y-99416520D01*
X136974097Y-99431992D01*
X136926033Y-99482702D01*
X136863713Y-99499500D01*
X135758676Y-99499500D01*
X135691637Y-99479815D01*
X135670995Y-99463181D01*
X133807316Y-97599502D01*
X133807314Y-97599500D01*
X133750250Y-97566554D01*
X133693187Y-97533608D01*
X133629539Y-97516554D01*
X133565892Y-97499500D01*
X133565891Y-97499500D01*
X127258676Y-97499500D01*
X127191637Y-97479815D01*
X127170995Y-97463181D01*
X125806357Y-96098543D01*
X136499499Y-96098543D01*
X136537947Y-96291829D01*
X136537950Y-96291839D01*
X136603870Y-96450984D01*
X136613368Y-96473914D01*
X136641938Y-96516672D01*
X136674971Y-96566110D01*
X136695848Y-96632787D01*
X136677363Y-96700167D01*
X136674971Y-96703890D01*
X136613366Y-96796089D01*
X136537950Y-96978160D01*
X136537947Y-96978170D01*
X136499500Y-97171456D01*
X136499500Y-97171459D01*
X136499500Y-97368541D01*
X136499500Y-97368543D01*
X136499499Y-97368543D01*
X136537947Y-97561829D01*
X136537950Y-97561839D01*
X136613365Y-97743907D01*
X136613368Y-97743914D01*
X136653885Y-97804552D01*
X136675271Y-97836559D01*
X136696148Y-97903236D01*
X136677663Y-97970616D01*
X136675271Y-97974339D01*
X136613809Y-98066325D01*
X136538430Y-98248306D01*
X136538427Y-98248318D01*
X136500000Y-98441504D01*
X136500000Y-98638495D01*
X136538427Y-98831681D01*
X136538430Y-98831693D01*
X136613808Y-99013673D01*
X136613809Y-99013675D01*
X136637426Y-99049019D01*
X137175000Y-98511445D01*
X137175000Y-98582787D01*
X137197149Y-98665445D01*
X137239936Y-98739554D01*
X137300446Y-98800064D01*
X137374555Y-98842851D01*
X137457213Y-98865000D01*
X137542787Y-98865000D01*
X137625445Y-98842851D01*
X137699554Y-98800064D01*
X137760064Y-98739554D01*
X137802851Y-98665445D01*
X137825000Y-98582787D01*
X137825000Y-98511447D01*
X138362572Y-99049020D01*
X138362573Y-99049019D01*
X138386187Y-99013680D01*
X138386190Y-99013676D01*
X138461569Y-98831693D01*
X138461572Y-98831681D01*
X138499999Y-98638495D01*
X138500000Y-98638492D01*
X138500000Y-98441508D01*
X138499999Y-98441504D01*
X138461572Y-98248318D01*
X138461569Y-98248306D01*
X138386192Y-98066328D01*
X138386188Y-98066321D01*
X138324728Y-97974341D01*
X138303850Y-97907663D01*
X138322334Y-97840283D01*
X138324704Y-97836595D01*
X138386632Y-97743914D01*
X138462051Y-97561835D01*
X138500500Y-97368541D01*
X138500500Y-97171459D01*
X138500500Y-97171456D01*
X138462052Y-96978170D01*
X138462051Y-96978169D01*
X138462051Y-96978165D01*
X138433378Y-96908941D01*
X138386635Y-96796092D01*
X138386633Y-96796088D01*
X138386632Y-96796086D01*
X138325029Y-96703891D01*
X138304151Y-96637214D01*
X138322635Y-96569834D01*
X138325029Y-96566109D01*
X138358062Y-96516672D01*
X138386632Y-96473914D01*
X138462051Y-96291835D01*
X138500500Y-96098541D01*
X138500500Y-95901459D01*
X138500500Y-95901456D01*
X138462052Y-95708170D01*
X138462051Y-95708169D01*
X138462051Y-95708165D01*
X138419680Y-95605873D01*
X138412212Y-95536407D01*
X138434977Y-95484111D01*
X138443796Y-95472331D01*
X138494091Y-95337483D01*
X138500500Y-95277873D01*
X138500499Y-94182128D01*
X138494091Y-94122517D01*
X138443796Y-93987669D01*
X138443795Y-93987668D01*
X138443793Y-93987664D01*
X138357547Y-93872455D01*
X138357544Y-93872452D01*
X138242335Y-93786206D01*
X138242328Y-93786202D01*
X138107482Y-93735908D01*
X138107483Y-93735908D01*
X138047883Y-93729501D01*
X138047881Y-93729500D01*
X138047873Y-93729500D01*
X138047864Y-93729500D01*
X136952129Y-93729500D01*
X136952123Y-93729501D01*
X136892516Y-93735908D01*
X136757671Y-93786202D01*
X136757664Y-93786206D01*
X136642455Y-93872452D01*
X136642452Y-93872455D01*
X136556206Y-93987664D01*
X136556202Y-93987671D01*
X136505908Y-94122517D01*
X136499501Y-94182116D01*
X136499501Y-94182123D01*
X136499500Y-94182135D01*
X136499500Y-95277870D01*
X136499501Y-95277876D01*
X136505908Y-95337483D01*
X136556202Y-95472328D01*
X136556206Y-95472335D01*
X136565023Y-95484113D01*
X136589440Y-95549578D01*
X136580318Y-95605874D01*
X136554500Y-95668206D01*
X136537950Y-95708164D01*
X136537948Y-95708168D01*
X136537947Y-95708171D01*
X136499500Y-95901456D01*
X136499500Y-95901459D01*
X136499500Y-96098541D01*
X136499500Y-96098543D01*
X136499499Y-96098543D01*
X125806357Y-96098543D01*
X124536819Y-94829005D01*
X124503334Y-94767682D01*
X124500500Y-94741324D01*
X124500500Y-83434110D01*
X124500500Y-83434108D01*
X124466392Y-83306814D01*
X124400500Y-83192686D01*
X124307314Y-83099500D01*
X123628967Y-82421153D01*
X131999500Y-82421153D01*
X131999500Y-82578846D01*
X132030261Y-82733489D01*
X132030264Y-82733501D01*
X132090602Y-82879172D01*
X132090609Y-82879185D01*
X132178602Y-83010874D01*
X132199480Y-83077551D01*
X132199500Y-83079765D01*
X132199500Y-84896898D01*
X132199499Y-84896916D01*
X132199499Y-85062622D01*
X132199498Y-85062622D01*
X132199499Y-85062625D01*
X132240423Y-85215353D01*
X132269360Y-85265472D01*
X132319480Y-85352284D01*
X132379319Y-85412123D01*
X132384743Y-85419425D01*
X132393809Y-85444012D01*
X132406366Y-85467008D01*
X132406817Y-85469174D01*
X132437716Y-85624514D01*
X132437719Y-85624524D01*
X132498057Y-85770195D01*
X132498064Y-85770208D01*
X132585665Y-85901311D01*
X132585668Y-85901315D01*
X132697162Y-86012809D01*
X132697166Y-86012812D01*
X132828269Y-86100413D01*
X132828282Y-86100420D01*
X132973953Y-86160758D01*
X132973958Y-86160760D01*
X133128608Y-86191522D01*
X133128611Y-86191523D01*
X133128613Y-86191523D01*
X133286299Y-86191523D01*
X133286300Y-86191522D01*
X133440952Y-86160760D01*
X133586634Y-86100417D01*
X133717744Y-86012812D01*
X133829244Y-85901312D01*
X133916849Y-85770202D01*
X133977192Y-85624520D01*
X134007955Y-85469865D01*
X134007955Y-85312181D01*
X134007955Y-85312178D01*
X134007954Y-85312176D01*
X133997430Y-85259270D01*
X133977192Y-85157526D01*
X133937882Y-85062622D01*
X133916852Y-85011850D01*
X133916845Y-85011837D01*
X133829244Y-84880734D01*
X133829241Y-84880730D01*
X133717747Y-84769236D01*
X133717743Y-84769233D01*
X133586640Y-84681632D01*
X133586627Y-84681625D01*
X133477048Y-84636237D01*
X133422644Y-84592396D01*
X133400579Y-84526102D01*
X133400500Y-84521676D01*
X133400500Y-83079765D01*
X133420185Y-83012726D01*
X133421398Y-83010874D01*
X133509390Y-82879185D01*
X133509390Y-82879184D01*
X133509394Y-82879179D01*
X133569737Y-82733497D01*
X133600500Y-82578842D01*
X133600500Y-82421158D01*
X133600500Y-82421155D01*
X133600499Y-82421153D01*
X133569738Y-82266510D01*
X133569737Y-82266503D01*
X133569735Y-82266498D01*
X133509397Y-82120827D01*
X133509390Y-82120814D01*
X133421789Y-81989711D01*
X133421786Y-81989707D01*
X133310292Y-81878213D01*
X133310288Y-81878210D01*
X133179185Y-81790609D01*
X133179172Y-81790602D01*
X133033501Y-81730264D01*
X133033489Y-81730261D01*
X132878845Y-81699500D01*
X132878842Y-81699500D01*
X132721158Y-81699500D01*
X132721155Y-81699500D01*
X132566510Y-81730261D01*
X132566498Y-81730264D01*
X132420827Y-81790602D01*
X132420814Y-81790609D01*
X132289711Y-81878210D01*
X132289707Y-81878213D01*
X132178213Y-81989707D01*
X132178210Y-81989711D01*
X132090609Y-82120814D01*
X132090602Y-82120827D01*
X132030264Y-82266498D01*
X132030261Y-82266510D01*
X131999500Y-82421153D01*
X123628967Y-82421153D01*
X121628967Y-80421153D01*
X132399500Y-80421153D01*
X132399500Y-80578846D01*
X132430261Y-80733489D01*
X132430264Y-80733501D01*
X132490602Y-80879172D01*
X132490609Y-80879185D01*
X132578210Y-81010288D01*
X132578213Y-81010292D01*
X132689707Y-81121786D01*
X132689711Y-81121789D01*
X132820814Y-81209390D01*
X132820827Y-81209397D01*
X132966498Y-81269735D01*
X132966503Y-81269737D01*
X133121153Y-81300499D01*
X133121156Y-81300500D01*
X133121158Y-81300500D01*
X133278844Y-81300500D01*
X133278845Y-81300499D01*
X133433497Y-81269737D01*
X133579179Y-81209394D01*
X133579185Y-81209390D01*
X133710875Y-81121398D01*
X133777553Y-81100520D01*
X133779766Y-81100500D01*
X134220234Y-81100500D01*
X134287273Y-81120185D01*
X134289125Y-81121398D01*
X134420814Y-81209390D01*
X134420827Y-81209397D01*
X134566498Y-81269735D01*
X134566503Y-81269737D01*
X134721153Y-81300499D01*
X134721156Y-81300500D01*
X134721158Y-81300500D01*
X134878844Y-81300500D01*
X134878845Y-81300499D01*
X135033497Y-81269737D01*
X135179179Y-81209394D01*
X135310289Y-81121789D01*
X135421789Y-81010289D01*
X135509394Y-80879179D01*
X135569737Y-80733497D01*
X135600500Y-80578842D01*
X135600500Y-80421158D01*
X135600500Y-80421155D01*
X135600499Y-80421153D01*
X135569738Y-80266510D01*
X135569737Y-80266503D01*
X135569735Y-80266498D01*
X135509397Y-80120827D01*
X135509390Y-80120814D01*
X135421789Y-79989711D01*
X135421786Y-79989707D01*
X135310292Y-79878213D01*
X135310288Y-79878210D01*
X135179185Y-79790609D01*
X135179172Y-79790602D01*
X135033501Y-79730264D01*
X135033489Y-79730261D01*
X134878845Y-79699500D01*
X134878842Y-79699500D01*
X134721158Y-79699500D01*
X134721155Y-79699500D01*
X134566510Y-79730261D01*
X134566498Y-79730264D01*
X134420827Y-79790602D01*
X134420814Y-79790609D01*
X134289125Y-79878602D01*
X134222447Y-79899480D01*
X134220234Y-79899500D01*
X133779766Y-79899500D01*
X133712727Y-79879815D01*
X133710875Y-79878602D01*
X133579185Y-79790609D01*
X133579172Y-79790602D01*
X133433501Y-79730264D01*
X133433489Y-79730261D01*
X133278845Y-79699500D01*
X133278842Y-79699500D01*
X133121158Y-79699500D01*
X133121155Y-79699500D01*
X132966510Y-79730261D01*
X132966498Y-79730264D01*
X132820827Y-79790602D01*
X132820814Y-79790609D01*
X132689711Y-79878210D01*
X132689707Y-79878213D01*
X132578213Y-79989707D01*
X132578210Y-79989711D01*
X132490609Y-80120814D01*
X132490602Y-80120827D01*
X132430264Y-80266498D01*
X132430261Y-80266510D01*
X132399500Y-80421153D01*
X121628967Y-80421153D01*
X119036819Y-77829005D01*
X119003334Y-77767682D01*
X119000500Y-77741324D01*
X119000500Y-66934110D01*
X119000500Y-66934108D01*
X118966392Y-66806814D01*
X118900500Y-66692686D01*
X118807314Y-66599500D01*
X118028967Y-65821153D01*
X119699500Y-65821153D01*
X119699500Y-65978846D01*
X119730261Y-66133489D01*
X119730264Y-66133501D01*
X119790602Y-66279172D01*
X119790609Y-66279185D01*
X119878602Y-66410874D01*
X119899480Y-66477551D01*
X119899500Y-66479765D01*
X119899500Y-66920234D01*
X119879815Y-66987273D01*
X119878602Y-66989125D01*
X119790609Y-67120814D01*
X119790602Y-67120827D01*
X119730264Y-67266498D01*
X119730261Y-67266510D01*
X119699500Y-67421153D01*
X119699500Y-67578846D01*
X119730261Y-67733489D01*
X119730264Y-67733501D01*
X119790602Y-67879172D01*
X119790609Y-67879185D01*
X119878210Y-68010288D01*
X119878213Y-68010292D01*
X119989707Y-68121786D01*
X119989711Y-68121789D01*
X120120814Y-68209390D01*
X120120827Y-68209397D01*
X120266498Y-68269735D01*
X120266503Y-68269737D01*
X120421153Y-68300499D01*
X120421156Y-68300500D01*
X120421158Y-68300500D01*
X120578844Y-68300500D01*
X120578845Y-68300499D01*
X120733497Y-68269737D01*
X120879179Y-68209394D01*
X121010289Y-68121789D01*
X121121789Y-68010289D01*
X121209394Y-67879179D01*
X121269737Y-67733497D01*
X121300500Y-67578842D01*
X121300500Y-67421158D01*
X121300500Y-67421155D01*
X121300499Y-67421153D01*
X121269738Y-67266510D01*
X121269737Y-67266503D01*
X121269735Y-67266498D01*
X121209397Y-67120827D01*
X121209390Y-67120814D01*
X121121398Y-66989125D01*
X121100520Y-66922447D01*
X121100500Y-66920234D01*
X121100500Y-66479765D01*
X121120185Y-66412726D01*
X121121398Y-66410874D01*
X121149567Y-66368717D01*
X121209394Y-66279179D01*
X121269737Y-66133497D01*
X121300500Y-65978842D01*
X121300500Y-65821158D01*
X121300500Y-65821155D01*
X121300499Y-65821153D01*
X121281044Y-65723348D01*
X121269737Y-65666503D01*
X121269735Y-65666498D01*
X121209397Y-65520827D01*
X121209390Y-65520814D01*
X121121789Y-65389711D01*
X121121786Y-65389707D01*
X121010292Y-65278213D01*
X121010288Y-65278210D01*
X120879185Y-65190609D01*
X120879172Y-65190602D01*
X120733501Y-65130264D01*
X120733489Y-65130261D01*
X120578845Y-65099500D01*
X120578842Y-65099500D01*
X120421158Y-65099500D01*
X120421155Y-65099500D01*
X120266510Y-65130261D01*
X120266498Y-65130264D01*
X120120827Y-65190602D01*
X120120814Y-65190609D01*
X119989711Y-65278210D01*
X119989707Y-65278213D01*
X119878213Y-65389707D01*
X119878210Y-65389711D01*
X119790609Y-65520814D01*
X119790602Y-65520827D01*
X119730264Y-65666498D01*
X119730261Y-65666510D01*
X119699500Y-65821153D01*
X118028967Y-65821153D01*
X116036819Y-63829005D01*
X116022115Y-63802077D01*
X116005523Y-63776259D01*
X116004631Y-63770058D01*
X116003334Y-63767682D01*
X116000500Y-63741324D01*
X116000500Y-63662067D01*
X133294500Y-63662067D01*
X133294500Y-63800433D01*
X133326512Y-63919902D01*
X133330312Y-63934085D01*
X133330313Y-63934088D01*
X133399492Y-64053911D01*
X133399494Y-64053914D01*
X133399495Y-64053915D01*
X133497335Y-64151755D01*
X133497337Y-64151756D01*
X133497341Y-64151759D01*
X133589949Y-64205226D01*
X133638165Y-64255792D01*
X133651389Y-64324399D01*
X133631052Y-64381503D01*
X133600612Y-64427059D01*
X133600602Y-64427077D01*
X133540264Y-64572748D01*
X133540261Y-64572760D01*
X133509500Y-64727403D01*
X133509500Y-64885096D01*
X133540261Y-65039739D01*
X133540264Y-65039751D01*
X133600602Y-65185422D01*
X133600609Y-65185435D01*
X133688602Y-65317124D01*
X133709480Y-65383801D01*
X133709500Y-65386015D01*
X133709500Y-65723330D01*
X133709499Y-65723348D01*
X133709499Y-65889054D01*
X133709498Y-65889054D01*
X133709499Y-65889057D01*
X133750423Y-66041785D01*
X133771942Y-66079057D01*
X133829477Y-66178712D01*
X133829481Y-66178717D01*
X133958720Y-66307956D01*
X133958725Y-66307960D01*
X134131284Y-66480520D01*
X134131286Y-66480521D01*
X134131290Y-66480524D01*
X134268209Y-66559573D01*
X134268216Y-66559577D01*
X134420943Y-66600501D01*
X134420945Y-66600501D01*
X134586654Y-66600501D01*
X134586670Y-66600500D01*
X139079055Y-66600500D01*
X139079057Y-66600500D01*
X139231784Y-66559577D01*
X139368716Y-66480520D01*
X139480520Y-66368716D01*
X139559577Y-66231784D01*
X139600500Y-66079057D01*
X139600500Y-65499190D01*
X139620185Y-65432151D01*
X139636814Y-65411513D01*
X139731789Y-65316539D01*
X139819394Y-65185429D01*
X139879737Y-65039747D01*
X139910500Y-64885092D01*
X139910500Y-64727408D01*
X139910500Y-64727405D01*
X139910499Y-64727403D01*
X139879738Y-64572760D01*
X139879737Y-64572753D01*
X139879735Y-64572748D01*
X139819397Y-64427077D01*
X139819389Y-64427062D01*
X139788948Y-64381505D01*
X139768069Y-64314828D01*
X139786553Y-64247447D01*
X139830047Y-64205227D01*
X139922665Y-64151755D01*
X140020505Y-64053915D01*
X140089688Y-63934086D01*
X140125500Y-63800433D01*
X140125500Y-63662067D01*
X140089688Y-63528414D01*
X140020505Y-63408585D01*
X139922665Y-63310745D01*
X139922664Y-63310744D01*
X139922661Y-63310742D01*
X139802838Y-63241563D01*
X139802837Y-63241562D01*
X139802836Y-63241562D01*
X139669183Y-63205750D01*
X139530817Y-63205750D01*
X139397164Y-63241562D01*
X139397161Y-63241563D01*
X139277338Y-63310742D01*
X139277333Y-63310746D01*
X139179496Y-63408583D01*
X139179492Y-63408588D01*
X139110313Y-63528411D01*
X139110312Y-63528414D01*
X139074500Y-63662067D01*
X139074500Y-63800434D01*
X139090271Y-63859294D01*
X139088608Y-63929144D01*
X139049444Y-63987006D01*
X138994688Y-64013003D01*
X138876508Y-64036511D01*
X138876498Y-64036514D01*
X138730827Y-64096852D01*
X138730814Y-64096859D01*
X138599711Y-64184460D01*
X138599707Y-64184463D01*
X138488213Y-64295957D01*
X138488210Y-64295961D01*
X138400609Y-64427064D01*
X138400602Y-64427077D01*
X138340264Y-64572748D01*
X138340261Y-64572760D01*
X138309500Y-64727403D01*
X138309500Y-64885096D01*
X138340261Y-65039739D01*
X138340263Y-65039747D01*
X138365013Y-65099500D01*
X138390061Y-65159970D01*
X138391687Y-65168147D01*
X138394477Y-65172488D01*
X138399500Y-65207423D01*
X138399500Y-65275500D01*
X138379815Y-65342539D01*
X138327011Y-65388294D01*
X138275500Y-65399500D01*
X135108345Y-65399500D01*
X135041306Y-65379815D01*
X134995551Y-65327011D01*
X134985607Y-65257853D01*
X135005242Y-65206610D01*
X135015935Y-65190606D01*
X135019394Y-65185429D01*
X135079737Y-65039747D01*
X135110500Y-64885092D01*
X135110500Y-64727408D01*
X135110500Y-64727405D01*
X135110499Y-64727403D01*
X135079738Y-64572760D01*
X135079737Y-64572753D01*
X135079735Y-64572748D01*
X135019397Y-64427077D01*
X135019390Y-64427064D01*
X134931789Y-64295961D01*
X134931786Y-64295957D01*
X134820292Y-64184463D01*
X134820288Y-64184460D01*
X134689185Y-64096859D01*
X134689172Y-64096852D01*
X134543501Y-64036514D01*
X134543491Y-64036511D01*
X134425311Y-64013003D01*
X134363400Y-63980618D01*
X134328826Y-63919902D01*
X134329728Y-63859294D01*
X134345500Y-63800433D01*
X134345500Y-63662067D01*
X134309688Y-63528414D01*
X134240505Y-63408585D01*
X134142665Y-63310745D01*
X134142664Y-63310744D01*
X134142661Y-63310742D01*
X134022838Y-63241563D01*
X134022837Y-63241562D01*
X134022836Y-63241562D01*
X133889183Y-63205750D01*
X133750817Y-63205750D01*
X133617164Y-63241562D01*
X133617161Y-63241563D01*
X133497338Y-63310742D01*
X133497333Y-63310746D01*
X133399496Y-63408583D01*
X133399492Y-63408588D01*
X133330313Y-63528411D01*
X133330312Y-63528414D01*
X133294500Y-63662067D01*
X116000500Y-63662067D01*
X116000500Y-55124500D01*
X116020185Y-55057461D01*
X116072989Y-55011706D01*
X116124500Y-55000500D01*
X145875500Y-55000500D01*
X145942539Y-55020185D01*
G37*
%TD.AperFunction*%
%TD*%
M02*
