%TF.GenerationSoftware,KiCad,Pcbnew,9.0.7*%
%TF.CreationDate,2026-03-01T17:50:22+05:30*%
%TF.ProjectId,HID,4849442e-6b69-4636-9164-5f7063625858,rev?*%
%TF.SameCoordinates,Original*%
%TF.FileFunction,Legend,Top*%
%TF.FilePolarity,Positive*%
%FSLAX46Y46*%
G04 Gerber Fmt 4.6, Leading zero omitted, Abs format (unit mm)*
G04 Created by KiCad (PCBNEW 9.0.7) date 2026-03-01 17:50:22*
%MOMM*%
%LPD*%
G01*
G04 APERTURE LIST*
%ADD10C,0.150000*%
%ADD11C,0.120000*%
G04 APERTURE END LIST*
D10*
X137043333Y-66686430D02*
X137043333Y-65972145D01*
X137043333Y-65972145D02*
X137090952Y-65829288D01*
X137090952Y-65829288D02*
X137186190Y-65734050D01*
X137186190Y-65734050D02*
X137329047Y-65686430D01*
X137329047Y-65686430D02*
X137424285Y-65686430D01*
X136043333Y-65686430D02*
X136614761Y-65686430D01*
X136329047Y-65686430D02*
X136329047Y-66686430D01*
X136329047Y-66686430D02*
X136424285Y-66543573D01*
X136424285Y-66543573D02*
X136519523Y-66448335D01*
X136519523Y-66448335D02*
X136614761Y-66400716D01*
X142833333Y-68936069D02*
X142500000Y-68459878D01*
X142261905Y-68936069D02*
X142261905Y-67936069D01*
X142261905Y-67936069D02*
X142642857Y-67936069D01*
X142642857Y-67936069D02*
X142738095Y-67983688D01*
X142738095Y-67983688D02*
X142785714Y-68031307D01*
X142785714Y-68031307D02*
X142833333Y-68126545D01*
X142833333Y-68126545D02*
X142833333Y-68269402D01*
X142833333Y-68269402D02*
X142785714Y-68364640D01*
X142785714Y-68364640D02*
X142738095Y-68412259D01*
X142738095Y-68412259D02*
X142642857Y-68459878D01*
X142642857Y-68459878D02*
X142261905Y-68459878D01*
X143166667Y-67936069D02*
X143785714Y-67936069D01*
X143785714Y-67936069D02*
X143452381Y-68317021D01*
X143452381Y-68317021D02*
X143595238Y-68317021D01*
X143595238Y-68317021D02*
X143690476Y-68364640D01*
X143690476Y-68364640D02*
X143738095Y-68412259D01*
X143738095Y-68412259D02*
X143785714Y-68507497D01*
X143785714Y-68507497D02*
X143785714Y-68745592D01*
X143785714Y-68745592D02*
X143738095Y-68840830D01*
X143738095Y-68840830D02*
X143690476Y-68888450D01*
X143690476Y-68888450D02*
X143595238Y-68936069D01*
X143595238Y-68936069D02*
X143309524Y-68936069D01*
X143309524Y-68936069D02*
X143214286Y-68888450D01*
X143214286Y-68888450D02*
X143166667Y-68840830D01*
X135039580Y-95629166D02*
X135087200Y-95676785D01*
X135087200Y-95676785D02*
X135134819Y-95819642D01*
X135134819Y-95819642D02*
X135134819Y-95914880D01*
X135134819Y-95914880D02*
X135087200Y-96057737D01*
X135087200Y-96057737D02*
X134991961Y-96152975D01*
X134991961Y-96152975D02*
X134896723Y-96200594D01*
X134896723Y-96200594D02*
X134706247Y-96248213D01*
X134706247Y-96248213D02*
X134563390Y-96248213D01*
X134563390Y-96248213D02*
X134372914Y-96200594D01*
X134372914Y-96200594D02*
X134277676Y-96152975D01*
X134277676Y-96152975D02*
X134182438Y-96057737D01*
X134182438Y-96057737D02*
X134134819Y-95914880D01*
X134134819Y-95914880D02*
X134134819Y-95819642D01*
X134134819Y-95819642D02*
X134182438Y-95676785D01*
X134182438Y-95676785D02*
X134230057Y-95629166D01*
X134230057Y-95248213D02*
X134182438Y-95200594D01*
X134182438Y-95200594D02*
X134134819Y-95105356D01*
X134134819Y-95105356D02*
X134134819Y-94867261D01*
X134134819Y-94867261D02*
X134182438Y-94772023D01*
X134182438Y-94772023D02*
X134230057Y-94724404D01*
X134230057Y-94724404D02*
X134325295Y-94676785D01*
X134325295Y-94676785D02*
X134420533Y-94676785D01*
X134420533Y-94676785D02*
X134563390Y-94724404D01*
X134563390Y-94724404D02*
X135134819Y-95295832D01*
X135134819Y-95295832D02*
X135134819Y-94676785D01*
X138833333Y-94104819D02*
X138500000Y-93628628D01*
X138261905Y-94104819D02*
X138261905Y-93104819D01*
X138261905Y-93104819D02*
X138642857Y-93104819D01*
X138642857Y-93104819D02*
X138738095Y-93152438D01*
X138738095Y-93152438D02*
X138785714Y-93200057D01*
X138785714Y-93200057D02*
X138833333Y-93295295D01*
X138833333Y-93295295D02*
X138833333Y-93438152D01*
X138833333Y-93438152D02*
X138785714Y-93533390D01*
X138785714Y-93533390D02*
X138738095Y-93581009D01*
X138738095Y-93581009D02*
X138642857Y-93628628D01*
X138642857Y-93628628D02*
X138261905Y-93628628D01*
X139785714Y-94104819D02*
X139214286Y-94104819D01*
X139500000Y-94104819D02*
X139500000Y-93104819D01*
X139500000Y-93104819D02*
X139404762Y-93247676D01*
X139404762Y-93247676D02*
X139309524Y-93342914D01*
X139309524Y-93342914D02*
X139214286Y-93390533D01*
X126070833Y-82810830D02*
X126023214Y-82858450D01*
X126023214Y-82858450D02*
X125880357Y-82906069D01*
X125880357Y-82906069D02*
X125785119Y-82906069D01*
X125785119Y-82906069D02*
X125642262Y-82858450D01*
X125642262Y-82858450D02*
X125547024Y-82763211D01*
X125547024Y-82763211D02*
X125499405Y-82667973D01*
X125499405Y-82667973D02*
X125451786Y-82477497D01*
X125451786Y-82477497D02*
X125451786Y-82334640D01*
X125451786Y-82334640D02*
X125499405Y-82144164D01*
X125499405Y-82144164D02*
X125547024Y-82048926D01*
X125547024Y-82048926D02*
X125642262Y-81953688D01*
X125642262Y-81953688D02*
X125785119Y-81906069D01*
X125785119Y-81906069D02*
X125880357Y-81906069D01*
X125880357Y-81906069D02*
X126023214Y-81953688D01*
X126023214Y-81953688D02*
X126070833Y-82001307D01*
X126404167Y-81906069D02*
X127023214Y-81906069D01*
X127023214Y-81906069D02*
X126689881Y-82287021D01*
X126689881Y-82287021D02*
X126832738Y-82287021D01*
X126832738Y-82287021D02*
X126927976Y-82334640D01*
X126927976Y-82334640D02*
X126975595Y-82382259D01*
X126975595Y-82382259D02*
X127023214Y-82477497D01*
X127023214Y-82477497D02*
X127023214Y-82715592D01*
X127023214Y-82715592D02*
X126975595Y-82810830D01*
X126975595Y-82810830D02*
X126927976Y-82858450D01*
X126927976Y-82858450D02*
X126832738Y-82906069D01*
X126832738Y-82906069D02*
X126547024Y-82906069D01*
X126547024Y-82906069D02*
X126451786Y-82858450D01*
X126451786Y-82858450D02*
X126404167Y-82810830D01*
X139333333Y-80859580D02*
X139285714Y-80907200D01*
X139285714Y-80907200D02*
X139142857Y-80954819D01*
X139142857Y-80954819D02*
X139047619Y-80954819D01*
X139047619Y-80954819D02*
X138904762Y-80907200D01*
X138904762Y-80907200D02*
X138809524Y-80811961D01*
X138809524Y-80811961D02*
X138761905Y-80716723D01*
X138761905Y-80716723D02*
X138714286Y-80526247D01*
X138714286Y-80526247D02*
X138714286Y-80383390D01*
X138714286Y-80383390D02*
X138761905Y-80192914D01*
X138761905Y-80192914D02*
X138809524Y-80097676D01*
X138809524Y-80097676D02*
X138904762Y-80002438D01*
X138904762Y-80002438D02*
X139047619Y-79954819D01*
X139047619Y-79954819D02*
X139142857Y-79954819D01*
X139142857Y-79954819D02*
X139285714Y-80002438D01*
X139285714Y-80002438D02*
X139333333Y-80050057D01*
X140190476Y-80288152D02*
X140190476Y-80954819D01*
X139952381Y-79907200D02*
X139714286Y-80621485D01*
X139714286Y-80621485D02*
X140333333Y-80621485D01*
X124049819Y-75080654D02*
X124859342Y-75080654D01*
X124859342Y-75080654D02*
X124954580Y-75033035D01*
X124954580Y-75033035D02*
X125002200Y-74985416D01*
X125002200Y-74985416D02*
X125049819Y-74890178D01*
X125049819Y-74890178D02*
X125049819Y-74699702D01*
X125049819Y-74699702D02*
X125002200Y-74604464D01*
X125002200Y-74604464D02*
X124954580Y-74556845D01*
X124954580Y-74556845D02*
X124859342Y-74509226D01*
X124859342Y-74509226D02*
X124049819Y-74509226D01*
X124145057Y-74080654D02*
X124097438Y-74033035D01*
X124097438Y-74033035D02*
X124049819Y-73937797D01*
X124049819Y-73937797D02*
X124049819Y-73699702D01*
X124049819Y-73699702D02*
X124097438Y-73604464D01*
X124097438Y-73604464D02*
X124145057Y-73556845D01*
X124145057Y-73556845D02*
X124240295Y-73509226D01*
X124240295Y-73509226D02*
X124335533Y-73509226D01*
X124335533Y-73509226D02*
X124478390Y-73556845D01*
X124478390Y-73556845D02*
X125049819Y-74128273D01*
X125049819Y-74128273D02*
X125049819Y-73509226D01*
X128238095Y-91454819D02*
X128238095Y-92264342D01*
X128238095Y-92264342D02*
X128285714Y-92359580D01*
X128285714Y-92359580D02*
X128333333Y-92407200D01*
X128333333Y-92407200D02*
X128428571Y-92454819D01*
X128428571Y-92454819D02*
X128619047Y-92454819D01*
X128619047Y-92454819D02*
X128714285Y-92407200D01*
X128714285Y-92407200D02*
X128761904Y-92359580D01*
X128761904Y-92359580D02*
X128809523Y-92264342D01*
X128809523Y-92264342D02*
X128809523Y-91454819D01*
X129809523Y-92454819D02*
X129238095Y-92454819D01*
X129523809Y-92454819D02*
X129523809Y-91454819D01*
X129523809Y-91454819D02*
X129428571Y-91597676D01*
X129428571Y-91597676D02*
X129333333Y-91692914D01*
X129333333Y-91692914D02*
X129238095Y-91740533D01*
X132509580Y-76260416D02*
X132557200Y-76308035D01*
X132557200Y-76308035D02*
X132604819Y-76450892D01*
X132604819Y-76450892D02*
X132604819Y-76546130D01*
X132604819Y-76546130D02*
X132557200Y-76688987D01*
X132557200Y-76688987D02*
X132461961Y-76784225D01*
X132461961Y-76784225D02*
X132366723Y-76831844D01*
X132366723Y-76831844D02*
X132176247Y-76879463D01*
X132176247Y-76879463D02*
X132033390Y-76879463D01*
X132033390Y-76879463D02*
X131842914Y-76831844D01*
X131842914Y-76831844D02*
X131747676Y-76784225D01*
X131747676Y-76784225D02*
X131652438Y-76688987D01*
X131652438Y-76688987D02*
X131604819Y-76546130D01*
X131604819Y-76546130D02*
X131604819Y-76450892D01*
X131604819Y-76450892D02*
X131652438Y-76308035D01*
X131652438Y-76308035D02*
X131700057Y-76260416D01*
X131604819Y-75403273D02*
X131604819Y-75593749D01*
X131604819Y-75593749D02*
X131652438Y-75688987D01*
X131652438Y-75688987D02*
X131700057Y-75736606D01*
X131700057Y-75736606D02*
X131842914Y-75831844D01*
X131842914Y-75831844D02*
X132033390Y-75879463D01*
X132033390Y-75879463D02*
X132414342Y-75879463D01*
X132414342Y-75879463D02*
X132509580Y-75831844D01*
X132509580Y-75831844D02*
X132557200Y-75784225D01*
X132557200Y-75784225D02*
X132604819Y-75688987D01*
X132604819Y-75688987D02*
X132604819Y-75498511D01*
X132604819Y-75498511D02*
X132557200Y-75403273D01*
X132557200Y-75403273D02*
X132509580Y-75355654D01*
X132509580Y-75355654D02*
X132414342Y-75308035D01*
X132414342Y-75308035D02*
X132176247Y-75308035D01*
X132176247Y-75308035D02*
X132081009Y-75355654D01*
X132081009Y-75355654D02*
X132033390Y-75403273D01*
X132033390Y-75403273D02*
X131985771Y-75498511D01*
X131985771Y-75498511D02*
X131985771Y-75688987D01*
X131985771Y-75688987D02*
X132033390Y-75784225D01*
X132033390Y-75784225D02*
X132081009Y-75831844D01*
X132081009Y-75831844D02*
X132176247Y-75879463D01*
X137097080Y-76797916D02*
X137144700Y-76845535D01*
X137144700Y-76845535D02*
X137192319Y-76988392D01*
X137192319Y-76988392D02*
X137192319Y-77083630D01*
X137192319Y-77083630D02*
X137144700Y-77226487D01*
X137144700Y-77226487D02*
X137049461Y-77321725D01*
X137049461Y-77321725D02*
X136954223Y-77369344D01*
X136954223Y-77369344D02*
X136763747Y-77416963D01*
X136763747Y-77416963D02*
X136620890Y-77416963D01*
X136620890Y-77416963D02*
X136430414Y-77369344D01*
X136430414Y-77369344D02*
X136335176Y-77321725D01*
X136335176Y-77321725D02*
X136239938Y-77226487D01*
X136239938Y-77226487D02*
X136192319Y-77083630D01*
X136192319Y-77083630D02*
X136192319Y-76988392D01*
X136192319Y-76988392D02*
X136239938Y-76845535D01*
X136239938Y-76845535D02*
X136287557Y-76797916D01*
X136192319Y-75893154D02*
X136192319Y-76369344D01*
X136192319Y-76369344D02*
X136668509Y-76416963D01*
X136668509Y-76416963D02*
X136620890Y-76369344D01*
X136620890Y-76369344D02*
X136573271Y-76274106D01*
X136573271Y-76274106D02*
X136573271Y-76036011D01*
X136573271Y-76036011D02*
X136620890Y-75940773D01*
X136620890Y-75940773D02*
X136668509Y-75893154D01*
X136668509Y-75893154D02*
X136763747Y-75845535D01*
X136763747Y-75845535D02*
X137001842Y-75845535D01*
X137001842Y-75845535D02*
X137097080Y-75893154D01*
X137097080Y-75893154D02*
X137144700Y-75940773D01*
X137144700Y-75940773D02*
X137192319Y-76036011D01*
X137192319Y-76036011D02*
X137192319Y-76274106D01*
X137192319Y-76274106D02*
X137144700Y-76369344D01*
X137144700Y-76369344D02*
X137097080Y-76416963D01*
X136166666Y-91994819D02*
X136166666Y-92709104D01*
X136166666Y-92709104D02*
X136119047Y-92851961D01*
X136119047Y-92851961D02*
X136023809Y-92947200D01*
X136023809Y-92947200D02*
X135880952Y-92994819D01*
X135880952Y-92994819D02*
X135785714Y-92994819D01*
X136595238Y-92090057D02*
X136642857Y-92042438D01*
X136642857Y-92042438D02*
X136738095Y-91994819D01*
X136738095Y-91994819D02*
X136976190Y-91994819D01*
X136976190Y-91994819D02*
X137071428Y-92042438D01*
X137071428Y-92042438D02*
X137119047Y-92090057D01*
X137119047Y-92090057D02*
X137166666Y-92185295D01*
X137166666Y-92185295D02*
X137166666Y-92280533D01*
X137166666Y-92280533D02*
X137119047Y-92423390D01*
X137119047Y-92423390D02*
X136547619Y-92994819D01*
X136547619Y-92994819D02*
X137166666Y-92994819D01*
X126098809Y-94703628D02*
X126098809Y-95179819D01*
X125765476Y-94179819D02*
X126098809Y-94703628D01*
X126098809Y-94703628D02*
X126432142Y-94179819D01*
X127289285Y-95179819D02*
X126717857Y-95179819D01*
X127003571Y-95179819D02*
X127003571Y-94179819D01*
X127003571Y-94179819D02*
X126908333Y-94322676D01*
X126908333Y-94322676D02*
X126813095Y-94417914D01*
X126813095Y-94417914D02*
X126717857Y-94465533D01*
X142933333Y-67186069D02*
X142600000Y-66709878D01*
X142361905Y-67186069D02*
X142361905Y-66186069D01*
X142361905Y-66186069D02*
X142742857Y-66186069D01*
X142742857Y-66186069D02*
X142838095Y-66233688D01*
X142838095Y-66233688D02*
X142885714Y-66281307D01*
X142885714Y-66281307D02*
X142933333Y-66376545D01*
X142933333Y-66376545D02*
X142933333Y-66519402D01*
X142933333Y-66519402D02*
X142885714Y-66614640D01*
X142885714Y-66614640D02*
X142838095Y-66662259D01*
X142838095Y-66662259D02*
X142742857Y-66709878D01*
X142742857Y-66709878D02*
X142361905Y-66709878D01*
X143838095Y-66186069D02*
X143361905Y-66186069D01*
X143361905Y-66186069D02*
X143314286Y-66662259D01*
X143314286Y-66662259D02*
X143361905Y-66614640D01*
X143361905Y-66614640D02*
X143457143Y-66567021D01*
X143457143Y-66567021D02*
X143695238Y-66567021D01*
X143695238Y-66567021D02*
X143790476Y-66614640D01*
X143790476Y-66614640D02*
X143838095Y-66662259D01*
X143838095Y-66662259D02*
X143885714Y-66757497D01*
X143885714Y-66757497D02*
X143885714Y-66995592D01*
X143885714Y-66995592D02*
X143838095Y-67090830D01*
X143838095Y-67090830D02*
X143790476Y-67138450D01*
X143790476Y-67138450D02*
X143695238Y-67186069D01*
X143695238Y-67186069D02*
X143457143Y-67186069D01*
X143457143Y-67186069D02*
X143361905Y-67138450D01*
X143361905Y-67138450D02*
X143314286Y-67090830D01*
X116779580Y-62435416D02*
X116827200Y-62483035D01*
X116827200Y-62483035D02*
X116874819Y-62625892D01*
X116874819Y-62625892D02*
X116874819Y-62721130D01*
X116874819Y-62721130D02*
X116827200Y-62863987D01*
X116827200Y-62863987D02*
X116731961Y-62959225D01*
X116731961Y-62959225D02*
X116636723Y-63006844D01*
X116636723Y-63006844D02*
X116446247Y-63054463D01*
X116446247Y-63054463D02*
X116303390Y-63054463D01*
X116303390Y-63054463D02*
X116112914Y-63006844D01*
X116112914Y-63006844D02*
X116017676Y-62959225D01*
X116017676Y-62959225D02*
X115922438Y-62863987D01*
X115922438Y-62863987D02*
X115874819Y-62721130D01*
X115874819Y-62721130D02*
X115874819Y-62625892D01*
X115874819Y-62625892D02*
X115922438Y-62483035D01*
X115922438Y-62483035D02*
X115970057Y-62435416D01*
X116874819Y-61483035D02*
X116874819Y-62054463D01*
X116874819Y-61768749D02*
X115874819Y-61768749D01*
X115874819Y-61768749D02*
X116017676Y-61863987D01*
X116017676Y-61863987D02*
X116112914Y-61959225D01*
X116112914Y-61959225D02*
X116160533Y-62054463D01*
X129833333Y-57859580D02*
X129785714Y-57907200D01*
X129785714Y-57907200D02*
X129642857Y-57954819D01*
X129642857Y-57954819D02*
X129547619Y-57954819D01*
X129547619Y-57954819D02*
X129404762Y-57907200D01*
X129404762Y-57907200D02*
X129309524Y-57811961D01*
X129309524Y-57811961D02*
X129261905Y-57716723D01*
X129261905Y-57716723D02*
X129214286Y-57526247D01*
X129214286Y-57526247D02*
X129214286Y-57383390D01*
X129214286Y-57383390D02*
X129261905Y-57192914D01*
X129261905Y-57192914D02*
X129309524Y-57097676D01*
X129309524Y-57097676D02*
X129404762Y-57002438D01*
X129404762Y-57002438D02*
X129547619Y-56954819D01*
X129547619Y-56954819D02*
X129642857Y-56954819D01*
X129642857Y-56954819D02*
X129785714Y-57002438D01*
X129785714Y-57002438D02*
X129833333Y-57050057D01*
X130166667Y-56954819D02*
X130833333Y-56954819D01*
X130833333Y-56954819D02*
X130404762Y-57954819D01*
X121395833Y-58410830D02*
X121348214Y-58458450D01*
X121348214Y-58458450D02*
X121205357Y-58506069D01*
X121205357Y-58506069D02*
X121110119Y-58506069D01*
X121110119Y-58506069D02*
X120967262Y-58458450D01*
X120967262Y-58458450D02*
X120872024Y-58363211D01*
X120872024Y-58363211D02*
X120824405Y-58267973D01*
X120824405Y-58267973D02*
X120776786Y-58077497D01*
X120776786Y-58077497D02*
X120776786Y-57934640D01*
X120776786Y-57934640D02*
X120824405Y-57744164D01*
X120824405Y-57744164D02*
X120872024Y-57648926D01*
X120872024Y-57648926D02*
X120967262Y-57553688D01*
X120967262Y-57553688D02*
X121110119Y-57506069D01*
X121110119Y-57506069D02*
X121205357Y-57506069D01*
X121205357Y-57506069D02*
X121348214Y-57553688D01*
X121348214Y-57553688D02*
X121395833Y-57601307D01*
X121967262Y-57934640D02*
X121872024Y-57887021D01*
X121872024Y-57887021D02*
X121824405Y-57839402D01*
X121824405Y-57839402D02*
X121776786Y-57744164D01*
X121776786Y-57744164D02*
X121776786Y-57696545D01*
X121776786Y-57696545D02*
X121824405Y-57601307D01*
X121824405Y-57601307D02*
X121872024Y-57553688D01*
X121872024Y-57553688D02*
X121967262Y-57506069D01*
X121967262Y-57506069D02*
X122157738Y-57506069D01*
X122157738Y-57506069D02*
X122252976Y-57553688D01*
X122252976Y-57553688D02*
X122300595Y-57601307D01*
X122300595Y-57601307D02*
X122348214Y-57696545D01*
X122348214Y-57696545D02*
X122348214Y-57744164D01*
X122348214Y-57744164D02*
X122300595Y-57839402D01*
X122300595Y-57839402D02*
X122252976Y-57887021D01*
X122252976Y-57887021D02*
X122157738Y-57934640D01*
X122157738Y-57934640D02*
X121967262Y-57934640D01*
X121967262Y-57934640D02*
X121872024Y-57982259D01*
X121872024Y-57982259D02*
X121824405Y-58029878D01*
X121824405Y-58029878D02*
X121776786Y-58125116D01*
X121776786Y-58125116D02*
X121776786Y-58315592D01*
X121776786Y-58315592D02*
X121824405Y-58410830D01*
X121824405Y-58410830D02*
X121872024Y-58458450D01*
X121872024Y-58458450D02*
X121967262Y-58506069D01*
X121967262Y-58506069D02*
X122157738Y-58506069D01*
X122157738Y-58506069D02*
X122252976Y-58458450D01*
X122252976Y-58458450D02*
X122300595Y-58410830D01*
X122300595Y-58410830D02*
X122348214Y-58315592D01*
X122348214Y-58315592D02*
X122348214Y-58125116D01*
X122348214Y-58125116D02*
X122300595Y-58029878D01*
X122300595Y-58029878D02*
X122252976Y-57982259D01*
X122252976Y-57982259D02*
X122157738Y-57934640D01*
X142333333Y-74954819D02*
X142000000Y-74478628D01*
X141761905Y-74954819D02*
X141761905Y-73954819D01*
X141761905Y-73954819D02*
X142142857Y-73954819D01*
X142142857Y-73954819D02*
X142238095Y-74002438D01*
X142238095Y-74002438D02*
X142285714Y-74050057D01*
X142285714Y-74050057D02*
X142333333Y-74145295D01*
X142333333Y-74145295D02*
X142333333Y-74288152D01*
X142333333Y-74288152D02*
X142285714Y-74383390D01*
X142285714Y-74383390D02*
X142238095Y-74431009D01*
X142238095Y-74431009D02*
X142142857Y-74478628D01*
X142142857Y-74478628D02*
X141761905Y-74478628D01*
X142714286Y-74050057D02*
X142761905Y-74002438D01*
X142761905Y-74002438D02*
X142857143Y-73954819D01*
X142857143Y-73954819D02*
X143095238Y-73954819D01*
X143095238Y-73954819D02*
X143190476Y-74002438D01*
X143190476Y-74002438D02*
X143238095Y-74050057D01*
X143238095Y-74050057D02*
X143285714Y-74145295D01*
X143285714Y-74145295D02*
X143285714Y-74240533D01*
X143285714Y-74240533D02*
X143238095Y-74383390D01*
X143238095Y-74383390D02*
X142666667Y-74954819D01*
X142666667Y-74954819D02*
X143285714Y-74954819D01*
X126497897Y-64996069D02*
X126164564Y-64519878D01*
X125926469Y-64996069D02*
X125926469Y-63996069D01*
X125926469Y-63996069D02*
X126307421Y-63996069D01*
X126307421Y-63996069D02*
X126402659Y-64043688D01*
X126402659Y-64043688D02*
X126450278Y-64091307D01*
X126450278Y-64091307D02*
X126497897Y-64186545D01*
X126497897Y-64186545D02*
X126497897Y-64329402D01*
X126497897Y-64329402D02*
X126450278Y-64424640D01*
X126450278Y-64424640D02*
X126402659Y-64472259D01*
X126402659Y-64472259D02*
X126307421Y-64519878D01*
X126307421Y-64519878D02*
X125926469Y-64519878D01*
X127355040Y-63996069D02*
X127164564Y-63996069D01*
X127164564Y-63996069D02*
X127069326Y-64043688D01*
X127069326Y-64043688D02*
X127021707Y-64091307D01*
X127021707Y-64091307D02*
X126926469Y-64234164D01*
X126926469Y-64234164D02*
X126878850Y-64424640D01*
X126878850Y-64424640D02*
X126878850Y-64805592D01*
X126878850Y-64805592D02*
X126926469Y-64900830D01*
X126926469Y-64900830D02*
X126974088Y-64948450D01*
X126974088Y-64948450D02*
X127069326Y-64996069D01*
X127069326Y-64996069D02*
X127259802Y-64996069D01*
X127259802Y-64996069D02*
X127355040Y-64948450D01*
X127355040Y-64948450D02*
X127402659Y-64900830D01*
X127402659Y-64900830D02*
X127450278Y-64805592D01*
X127450278Y-64805592D02*
X127450278Y-64567497D01*
X127450278Y-64567497D02*
X127402659Y-64472259D01*
X127402659Y-64472259D02*
X127355040Y-64424640D01*
X127355040Y-64424640D02*
X127259802Y-64377021D01*
X127259802Y-64377021D02*
X127069326Y-64377021D01*
X127069326Y-64377021D02*
X126974088Y-64424640D01*
X126974088Y-64424640D02*
X126926469Y-64472259D01*
X126926469Y-64472259D02*
X126878850Y-64567497D01*
X117738095Y-64454819D02*
X117738095Y-65264342D01*
X117738095Y-65264342D02*
X117785714Y-65359580D01*
X117785714Y-65359580D02*
X117833333Y-65407200D01*
X117833333Y-65407200D02*
X117928571Y-65454819D01*
X117928571Y-65454819D02*
X118119047Y-65454819D01*
X118119047Y-65454819D02*
X118214285Y-65407200D01*
X118214285Y-65407200D02*
X118261904Y-65359580D01*
X118261904Y-65359580D02*
X118309523Y-65264342D01*
X118309523Y-65264342D02*
X118309523Y-64454819D01*
X118690476Y-64454819D02*
X119309523Y-64454819D01*
X119309523Y-64454819D02*
X118976190Y-64835771D01*
X118976190Y-64835771D02*
X119119047Y-64835771D01*
X119119047Y-64835771D02*
X119214285Y-64883390D01*
X119214285Y-64883390D02*
X119261904Y-64931009D01*
X119261904Y-64931009D02*
X119309523Y-65026247D01*
X119309523Y-65026247D02*
X119309523Y-65264342D01*
X119309523Y-65264342D02*
X119261904Y-65359580D01*
X119261904Y-65359580D02*
X119214285Y-65407200D01*
X119214285Y-65407200D02*
X119119047Y-65454819D01*
X119119047Y-65454819D02*
X118833333Y-65454819D01*
X118833333Y-65454819D02*
X118738095Y-65407200D01*
X118738095Y-65407200D02*
X118690476Y-65359580D01*
X135200595Y-68286069D02*
X135200595Y-69095592D01*
X135200595Y-69095592D02*
X135248214Y-69190830D01*
X135248214Y-69190830D02*
X135295833Y-69238450D01*
X135295833Y-69238450D02*
X135391071Y-69286069D01*
X135391071Y-69286069D02*
X135581547Y-69286069D01*
X135581547Y-69286069D02*
X135676785Y-69238450D01*
X135676785Y-69238450D02*
X135724404Y-69190830D01*
X135724404Y-69190830D02*
X135772023Y-69095592D01*
X135772023Y-69095592D02*
X135772023Y-68286069D01*
X136676785Y-68619402D02*
X136676785Y-69286069D01*
X136438690Y-68238450D02*
X136200595Y-68952735D01*
X136200595Y-68952735D02*
X136819642Y-68952735D01*
X134454819Y-68666666D02*
X133978628Y-68999999D01*
X134454819Y-69238094D02*
X133454819Y-69238094D01*
X133454819Y-69238094D02*
X133454819Y-68857142D01*
X133454819Y-68857142D02*
X133502438Y-68761904D01*
X133502438Y-68761904D02*
X133550057Y-68714285D01*
X133550057Y-68714285D02*
X133645295Y-68666666D01*
X133645295Y-68666666D02*
X133788152Y-68666666D01*
X133788152Y-68666666D02*
X133883390Y-68714285D01*
X133883390Y-68714285D02*
X133931009Y-68761904D01*
X133931009Y-68761904D02*
X133978628Y-68857142D01*
X133978628Y-68857142D02*
X133978628Y-69238094D01*
X133788152Y-67809523D02*
X134454819Y-67809523D01*
X133407200Y-68047618D02*
X134121485Y-68285713D01*
X134121485Y-68285713D02*
X134121485Y-67666666D01*
D11*
%TO.C,J1*%
X141290000Y-61561250D02*
X141290000Y-62971250D01*
X140470000Y-65641250D02*
X140470000Y-65491250D01*
X139670000Y-65641250D02*
X140470000Y-65641250D01*
X132130000Y-61561250D02*
X132130000Y-62971250D01*
%TO.C,R3*%
X141235436Y-70866250D02*
X141689564Y-70866250D01*
X141235436Y-69396250D02*
X141689564Y-69396250D01*
%TO.C,C2*%
X133735000Y-95201248D02*
X133735000Y-95723752D01*
X132265000Y-95201248D02*
X132265000Y-95723752D01*
%TO.C,R1*%
X139227064Y-92735000D02*
X138772936Y-92735000D01*
X139227064Y-91265000D02*
X138772936Y-91265000D01*
%TO.C,C3*%
X125976248Y-84866250D02*
X126498752Y-84866250D01*
X125976248Y-83396250D02*
X126498752Y-83396250D01*
%TO.C,C4*%
X137998752Y-83366250D02*
X137476248Y-83366250D01*
X137998752Y-81896250D02*
X137476248Y-81896250D01*
%TO.C,U2*%
X122240000Y-76491250D02*
X122240000Y-70971250D01*
X122510000Y-76491250D02*
X122240000Y-76491250D01*
X127760000Y-76491250D02*
X127490000Y-76491250D01*
X122240000Y-70971250D02*
X122510000Y-70971250D01*
X127490000Y-70971250D02*
X127760000Y-70971250D01*
X127760000Y-70971250D02*
X127760000Y-76491250D01*
X122500000Y-77321250D02*
X122030000Y-77661250D01*
X122030000Y-76981250D01*
X122500000Y-77321250D01*
G36*
X122500000Y-77321250D02*
G01*
X122030000Y-77661250D01*
X122030000Y-76981250D01*
X122500000Y-77321250D01*
G37*
%TO.C,U1*%
X128660000Y-84931250D02*
X128330000Y-85171250D01*
X128330000Y-84691250D01*
X128660000Y-84931250D01*
G36*
X128660000Y-84931250D02*
G01*
X128330000Y-85171250D01*
X128330000Y-84691250D01*
X128660000Y-84931250D01*
G37*
X136410000Y-83921250D02*
X136410000Y-84571250D01*
X135760000Y-83921250D02*
X136410000Y-83921250D01*
X129190000Y-83921250D02*
X129840000Y-83921250D01*
X129190000Y-84571250D02*
X129190000Y-83921250D01*
X136410000Y-90491250D02*
X136410000Y-91141250D01*
X136410000Y-91141250D02*
X135760000Y-91141250D01*
X129840000Y-91141250D02*
X129190000Y-91141250D01*
X129190000Y-91141250D02*
X129190000Y-90491250D01*
%TO.C,C6*%
X131265000Y-78969998D02*
X131265000Y-79492502D01*
X132735000Y-78969998D02*
X132735000Y-79492502D01*
%TO.C,C5*%
X135502500Y-79369998D02*
X135502500Y-79892502D01*
X136972500Y-79369998D02*
X136972500Y-79892502D01*
%TO.C,J2*%
X138660000Y-95540000D02*
X138660000Y-99285000D01*
X138166708Y-95540000D02*
X138660000Y-95540000D01*
X137817923Y-99285000D02*
X138660000Y-99285000D01*
X136340000Y-99285000D02*
X137182077Y-99285000D01*
X136340000Y-95540000D02*
X136833292Y-95540000D01*
X136340000Y-95540000D02*
X136340000Y-99285000D01*
X136340000Y-94730000D02*
X136340000Y-93920000D01*
X136340000Y-93920000D02*
X137500000Y-93920000D01*
%TO.C,Y1*%
X128015000Y-95105000D02*
G75*
G02*
X128215000Y-94884999I320002J-90001D01*
G01*
X130935000Y-94895000D02*
X130935000Y-94555000D01*
X129895000Y-95835000D02*
X129255000Y-95835000D01*
X129895000Y-93615000D02*
X129255000Y-93615000D01*
X128215000Y-94885000D02*
X128215000Y-94555000D01*
X128015000Y-95105000D02*
X128015000Y-95795000D01*
%TO.C,R5*%
X140372936Y-67966250D02*
X140827064Y-67966250D01*
X140372936Y-66496250D02*
X140827064Y-66496250D01*
%TO.C,C1*%
X118835000Y-62530002D02*
X118835000Y-62007498D01*
X117365000Y-62530002D02*
X117365000Y-62007498D01*
%TO.C,C7*%
X127963316Y-60626250D02*
X127440812Y-60626250D01*
X127963316Y-59156250D02*
X127440812Y-59156250D01*
%TO.C,C8*%
X121301248Y-60466250D02*
X121823752Y-60466250D01*
X121301248Y-58996250D02*
X121823752Y-58996250D01*
%TO.C,R2*%
X141235436Y-73366250D02*
X141689564Y-73366250D01*
X141235436Y-71896250D02*
X141689564Y-71896250D01*
%TO.C,R6*%
X127659128Y-62966250D02*
X127205000Y-62966250D01*
X127659128Y-61496250D02*
X127205000Y-61496250D01*
%TO.C,U3*%
X123152500Y-64521250D02*
X122672500Y-64521250D01*
X122912500Y-64191250D01*
X123152500Y-64521250D01*
G36*
X123152500Y-64521250D02*
G01*
X122672500Y-64521250D01*
X122912500Y-64191250D01*
X123152500Y-64521250D01*
G37*
X122372500Y-64241250D02*
X120552500Y-64241250D01*
X122372500Y-64191250D02*
X122372500Y-64241250D01*
X122372500Y-61121250D02*
X122372500Y-61171250D01*
X120552500Y-64241250D02*
X120552500Y-64191250D01*
X120552500Y-63071250D02*
X120552500Y-62291250D01*
X120552500Y-61171250D02*
X120552500Y-61121250D01*
X120552500Y-61121250D02*
X122372500Y-61121250D01*
%TO.C,U4*%
X135052500Y-69671250D02*
X136872500Y-69671250D01*
X135052500Y-69721250D02*
X135052500Y-69671250D01*
X135052500Y-72791250D02*
X135052500Y-72741250D01*
X136872500Y-69671250D02*
X136872500Y-69721250D01*
X136872500Y-72741250D02*
X136872500Y-72791250D01*
X136872500Y-72791250D02*
X135052500Y-72791250D01*
X134512500Y-69721250D02*
X134272500Y-69391250D01*
X134752500Y-69391250D01*
X134512500Y-69721250D01*
G36*
X134512500Y-69721250D02*
G01*
X134272500Y-69391250D01*
X134752500Y-69391250D01*
X134512500Y-69721250D01*
G37*
%TO.C,R4*%
X131365000Y-68504186D02*
X131365000Y-68958314D01*
X132835000Y-68504186D02*
X132835000Y-68958314D01*
%TD*%
M02*
